solid Exported from Blender-2.77 (sub 0)
facet normal 0.000001 0.000000 1.000000
outer loop
vertex 7.778174 7.778174 13.000000
vertex 9.789929 8.553204 13.000000
vertex 8.983814 9.396334 13.000000
endloop
endfacet
facet normal 0.000000 0.000000 1.000000
outer loop
vertex 6.978326 8.503115 13.000000
vertex 8.983814 9.396334 13.000000
vertex 8.105368 10.163809 13.000000
endloop
endfacet
facet normal 0.000000 0.000000 1.000000
outer loop
vertex 6.978326 8.503115 13.000000
vertex 7.778174 7.778174 13.000000
vertex 8.983814 9.396334 13.000000
endloop
endfacet
facet normal 0.000000 0.000000 1.000000
outer loop
vertex 8.503115 6.978326 13.000000
vertex 10.517220 7.641208 13.000000
vertex 9.789929 8.553204 13.000000
endloop
endfacet
facet normal 0.000001 0.000000 1.000000
outer loop
vertex 8.503115 6.978326 13.000000
vertex 9.789929 8.553204 13.000000
vertex 7.778174 7.778174 13.000000
endloop
endfacet
facet normal -0.000001 0.000000 1.000000
outer loop
vertex 6.111272 9.146166 13.000000
vertex 8.105368 10.163809 13.000000
vertex 7.161661 10.849452 13.000000
endloop
endfacet
facet normal 0.000000 0.000000 1.000000
outer loop
vertex 6.111272 9.146166 13.000000
vertex 6.978326 8.503115 13.000000
vertex 8.105368 10.163809 13.000000
endloop
endfacet
facet normal 0.000000 0.000000 1.000000
outer loop
vertex 9.146166 6.111272 13.000000
vertex 11.159834 6.667691 13.000000
vertex 10.517220 7.641208 13.000000
endloop
endfacet
facet normal 0.000000 0.000000 1.000000
outer loop
vertex 9.146166 6.111272 13.000000
vertex 10.517220 7.641208 13.000000
vertex 8.503115 6.978326 13.000000
endloop
endfacet
facet normal -0.000001 0.000000 1.000000
outer loop
vertex 5.185364 9.701134 13.000000
vertex 6.160293 11.447742 13.000000
vertex 5.109325 11.953861 13.000000
endloop
endfacet
facet normal 0.000001 0.000000 1.000000
outer loop
vertex 5.185364 9.701134 13.000000
vertex 7.161661 10.849452 13.000000
vertex 6.160293 11.447742 13.000000
endloop
endfacet
facet normal 0.000000 0.000000 1.000000
outer loop
vertex 5.185364 9.701134 13.000000
vertex 6.111272 9.146166 13.000000
vertex 7.161661 10.849452 13.000000
endloop
endfacet
facet normal 0.000000 0.000000 1.000000
outer loop
vertex 9.701134 5.185364 13.000000
vertex 11.712595 5.640489 13.000000
vertex 11.159834 6.667691 13.000000
endloop
endfacet
facet normal 0.000000 0.000000 1.000000
outer loop
vertex 9.701134 5.185364 13.000000
vertex 11.159834 6.667691 13.000000
vertex 9.146166 6.111272 13.000000
endloop
endfacet
facet normal -0.000001 0.000000 1.000000
outer loop
vertex 4.209518 10.162675 13.000000
vertex 5.109325 11.953861 13.000000
vertex 4.017221 12.363734 13.000000
endloop
endfacet
facet normal 0.000000 0.000000 1.000000
outer loop
vertex 4.209518 10.162675 13.000000
vertex 5.185364 9.701134 13.000000
vertex 5.109325 11.953861 13.000000
endloop
endfacet
facet normal 0.000000 0.000000 1.000000
outer loop
vertex 10.162675 4.209518 13.000000
vertex 12.171053 4.567873 13.000000
vertex 11.712595 5.640489 13.000000
endloop
endfacet
facet normal -0.000000 0.000000 1.000000
outer loop
vertex 10.162675 4.209518 13.000000
vertex 11.712595 5.640489 13.000000
vertex 9.701134 5.185364 13.000000
endloop
endfacet
facet normal 0.000001 0.000000 1.000000
outer loop
vertex 3.193131 10.526343 13.000000
vertex 4.017221 12.363734 13.000000
vertex 2.892772 12.674063 13.000000
endloop
endfacet
facet normal 0.000000 0.000000 1.000000
outer loop
vertex 3.193131 10.526343 13.000000
vertex 4.209518 10.162675 13.000000
vertex 4.017221 12.363734 13.000000
endloop
endfacet
facet normal -0.000001 0.000000 1.000000
outer loop
vertex 10.526343 3.193131 13.000000
vertex 12.531517 3.458479 13.000000
vertex 12.171053 4.567873 13.000000
endloop
endfacet
facet normal 0.000000 0.000000 1.000000
outer loop
vertex 10.526343 3.193131 13.000000
vertex 12.171053 4.567873 13.000000
vertex 10.162675 4.209518 13.000000
endloop
endfacet
facet normal -0.000002 0.000000 1.000000
outer loop
vertex 2.145993 10.788638 13.000000
vertex 2.892772 12.674063 13.000000
vertex 1.745032 12.882347 13.000000
endloop
endfacet
facet normal 0.000000 0.000000 1.000000
outer loop
vertex 2.145993 10.788638 13.000000
vertex 3.193131 10.526343 13.000000
vertex 2.892772 12.674063 13.000000
endloop
endfacet
facet normal 0.000000 0.000000 1.000000
outer loop
vertex 10.788638 2.145993 13.000000
vertex 12.791084 2.321240 13.000000
vertex 12.531517 3.458479 13.000000
endloop
endfacet
facet normal 0.000000 0.000000 1.000000
outer loop
vertex 10.788638 2.145993 13.000000
vertex 12.531517 3.458479 13.000000
vertex 10.526343 3.193131 13.000000
endloop
endfacet
facet normal 0.000002 0.000000 1.000000
outer loop
vertex 1.078189 10.947032 13.000000
vertex 1.745032 12.882347 13.000000
vertex 0.583243 12.986910 13.000000
endloop
endfacet
facet normal 0.000000 0.000000 1.000000
outer loop
vertex 1.078189 10.947032 13.000000
vertex 2.145993 10.788638 13.000000
vertex 1.745032 12.882347 13.000000
endloop
endfacet
facet normal 0.000001 0.000000 1.000000
outer loop
vertex 10.947032 1.078189 13.000000
vertex 12.947666 1.165311 13.000000
vertex 12.791084 2.321240 13.000000
endloop
endfacet
facet normal -0.000001 0.000000 1.000000
outer loop
vertex 10.947032 1.078189 13.000000
vertex 12.791084 2.321240 13.000000
vertex 10.788638 2.145993 13.000000
endloop
endfacet
facet normal 0.000000 0.000000 1.000000
outer loop
vertex 0.000000 11.000000 13.000000
vertex 0.583243 12.986910 13.000000
vertex -0.583243 12.986910 13.000000
endloop
endfacet
facet normal 0.000000 0.000000 1.000000
outer loop
vertex 0.000000 11.000000 13.000000
vertex 1.078189 10.947032 13.000000
vertex 0.583243 12.986910 13.000000
endloop
endfacet
facet normal 0.000000 0.000000 1.000000
outer loop
vertex 11.000000 0.000000 13.000000
vertex 13.000000 0.000000 13.000000
vertex 12.947666 1.165311 13.000000
endloop
endfacet
facet normal 0.000000 0.000000 1.000000
outer loop
vertex 11.000000 0.000000 13.000000
vertex 12.947666 -1.165311 13.000000
vertex 13.000000 0.000000 13.000000
endloop
endfacet
facet normal -0.000000 0.000000 1.000000
outer loop
vertex 11.000000 0.000000 13.000000
vertex 12.947666 1.165311 13.000000
vertex 10.947032 1.078189 13.000000
endloop
endfacet
facet normal 0.000002 0.000000 1.000000
outer loop
vertex -1.078189 10.947032 13.000000
vertex 0.000000 11.000000 13.000000
vertex -0.583243 12.986910 13.000000
endloop
endfacet
facet normal -0.000002 0.000000 1.000000
outer loop
vertex -1.078189 10.947032 13.000000
vertex -0.583243 12.986910 13.000000
vertex -1.745032 12.882347 13.000000
endloop
endfacet
facet normal -0.000001 0.000000 1.000000
outer loop
vertex 10.947032 -1.078189 13.000000
vertex 12.947666 -1.165311 13.000000
vertex 11.000000 0.000000 13.000000
endloop
endfacet
facet normal 0.000001 0.000000 1.000000
outer loop
vertex 10.947032 -1.078189 13.000000
vertex 12.791084 -2.321240 13.000000
vertex 12.947666 -1.165311 13.000000
endloop
endfacet
facet normal 0.000000 0.000000 1.000000
outer loop
vertex -2.145993 10.788638 13.000000
vertex -1.078189 10.947032 13.000000
vertex -1.745032 12.882347 13.000000
endloop
endfacet
facet normal 0.000002 0.000000 1.000000
outer loop
vertex -2.145993 10.788638 13.000000
vertex -1.745032 12.882347 13.000000
vertex -2.892772 12.674063 13.000000
endloop
endfacet
facet normal -0.000002 0.000000 1.000000
outer loop
vertex 10.788638 -2.145993 13.000000
vertex 12.791084 -2.321240 13.000000
vertex 10.947032 -1.078189 13.000000
endloop
endfacet
facet normal 0.000000 0.000000 1.000000
outer loop
vertex 10.788638 -2.145993 13.000000
vertex 12.531517 -3.458479 13.000000
vertex 12.791084 -2.321240 13.000000
endloop
endfacet
facet normal -0.000001 0.000000 1.000000
outer loop
vertex -3.193131 10.526343 13.000000
vertex -2.892772 12.674063 13.000000
vertex -4.017221 12.363734 13.000000
endloop
endfacet
facet normal 0.000000 0.000000 1.000000
outer loop
vertex -3.193131 10.526343 13.000000
vertex -2.145993 10.788638 13.000000
vertex -2.892772 12.674063 13.000000
endloop
endfacet
facet normal 0.000000 0.000000 1.000000
outer loop
vertex 10.526343 -3.193131 13.000000
vertex 12.531517 -3.458479 13.000000
vertex 10.788638 -2.145993 13.000000
endloop
endfacet
facet normal -0.000001 0.000000 1.000000
outer loop
vertex 10.526343 -3.193131 13.000000
vertex 12.171053 -4.567873 13.000000
vertex 12.531517 -3.458479 13.000000
endloop
endfacet
facet normal 0.000000 0.000000 1.000000
outer loop
vertex -4.209518 10.162675 13.000000
vertex -3.193131 10.526343 13.000000
vertex -4.017221 12.363734 13.000000
endloop
endfacet
facet normal 0.000001 0.000000 1.000000
outer loop
vertex -4.209518 10.162675 13.000000
vertex -4.017221 12.363734 13.000000
vertex -5.109325 11.953861 13.000000
endloop
endfacet
facet normal 0.000000 0.000000 1.000000
outer loop
vertex 10.162675 -4.209518 13.000000
vertex 12.171053 -4.567873 13.000000
vertex 10.526343 -3.193131 13.000000
endloop
endfacet
facet normal 0.000000 0.000000 1.000000
outer loop
vertex 10.162675 -4.209518 13.000000
vertex 11.712595 -5.640489 13.000000
vertex 12.171053 -4.567873 13.000000
endloop
endfacet
facet normal 0.000001 0.000000 1.000000
outer loop
vertex -5.185364 9.701134 13.000000
vertex -5.109325 11.953861 13.000000
vertex -6.160293 11.447742 13.000000
endloop
endfacet
facet normal 0.000000 0.000000 1.000000
outer loop
vertex -5.185364 9.701134 13.000000
vertex -4.209518 10.162675 13.000000
vertex -5.109325 11.953861 13.000000
endloop
endfacet
facet normal 0.000000 0.000000 1.000000
outer loop
vertex 9.701134 -5.185364 13.000000
vertex 11.712595 -5.640489 13.000000
vertex 10.162675 -4.209518 13.000000
endloop
endfacet
facet normal -0.000000 0.000000 1.000000
outer loop
vertex 11.159834 -6.667691 13.000000
vertex 11.712595 -5.640489 13.000000
vertex 9.701134 -5.185364 13.000000
endloop
endfacet
facet normal 0.000000 0.000000 1.000000
outer loop
vertex -7.161661 10.849452 13.000000
vertex -5.185364 9.701134 13.000000
vertex -6.160293 11.447742 13.000000
endloop
endfacet
facet normal -0.000001 0.000000 1.000000
outer loop
vertex -6.111272 9.146166 13.000000
vertex -5.185364 9.701134 13.000000
vertex -7.161661 10.849452 13.000000
endloop
endfacet
facet normal 0.000000 0.000000 1.000000
outer loop
vertex 9.146166 -6.111272 13.000000
vertex 11.159834 -6.667691 13.000000
vertex 9.701134 -5.185364 13.000000
endloop
endfacet
facet normal 0.000000 0.000000 1.000000
outer loop
vertex 10.517220 -7.641208 13.000000
vertex 11.159834 -6.667691 13.000000
vertex 9.146166 -6.111272 13.000000
endloop
endfacet
facet normal 0.000000 0.000000 1.000000
outer loop
vertex -8.105368 10.163809 13.000000
vertex -6.111272 9.146166 13.000000
vertex -7.161661 10.849452 13.000000
endloop
endfacet
facet normal 0.000000 0.000000 1.000000
outer loop
vertex -6.978326 8.503115 13.000000
vertex -6.111272 9.146166 13.000000
vertex -8.105368 10.163809 13.000000
endloop
endfacet
facet normal 0.000000 0.000000 1.000000
outer loop
vertex 8.503115 -6.978326 13.000000
vertex 10.517220 -7.641208 13.000000
vertex 9.146166 -6.111272 13.000000
endloop
endfacet
facet normal 0.000000 0.000000 1.000000
outer loop
vertex 9.789929 -8.553204 13.000000
vertex 10.517220 -7.641208 13.000000
vertex 8.503115 -6.978326 13.000000
endloop
endfacet
facet normal 0.000000 0.000000 1.000000
outer loop
vertex -8.983814 9.396334 13.000000
vertex -6.978326 8.503115 13.000000
vertex -8.105368 10.163809 13.000000
endloop
endfacet
facet normal 0.000001 0.000000 1.000000
outer loop
vertex -7.778174 7.778174 13.000000
vertex -6.978326 8.503115 13.000000
vertex -8.983814 9.396334 13.000000
endloop
endfacet
facet normal 0.000000 0.000000 1.000000
outer loop
vertex 7.778174 -7.778174 13.000000
vertex 9.789929 -8.553204 13.000000
vertex 8.503115 -6.978326 13.000000
endloop
endfacet
facet normal 0.000001 0.000000 1.000000
outer loop
vertex 8.983814 -9.396334 13.000000
vertex 9.789929 -8.553204 13.000000
vertex 7.778174 -7.778174 13.000000
endloop
endfacet
facet normal 0.000000 0.000000 1.000000
outer loop
vertex -9.789929 8.553204 13.000000
vertex -7.778174 7.778174 13.000000
vertex -8.983814 9.396334 13.000000
endloop
endfacet
facet normal -0.000001 0.000000 1.000000
outer loop
vertex -8.503115 6.978326 13.000000
vertex -7.778174 7.778174 13.000000
vertex -9.789929 8.553204 13.000000
endloop
endfacet
facet normal 0.000000 0.000000 1.000000
outer loop
vertex 6.978326 -8.503115 13.000000
vertex 8.983814 -9.396334 13.000000
vertex 7.778174 -7.778174 13.000000
endloop
endfacet
facet normal 0.000000 0.000000 1.000000
outer loop
vertex 8.105368 -10.163809 13.000000
vertex 8.983814 -9.396334 13.000000
vertex 6.978326 -8.503115 13.000000
endloop
endfacet
facet normal 0.000000 0.000000 1.000000
outer loop
vertex -10.517220 7.641208 13.000000
vertex -8.503115 6.978326 13.000000
vertex -9.789929 8.553204 13.000000
endloop
endfacet
facet normal 0.000000 0.000000 1.000000
outer loop
vertex -9.146166 6.111272 13.000000
vertex -8.503115 6.978326 13.000000
vertex -10.517220 7.641208 13.000000
endloop
endfacet
facet normal 0.000000 0.000000 1.000000
outer loop
vertex 6.111272 -9.146166 13.000000
vertex 8.105368 -10.163809 13.000000
vertex 6.978326 -8.503115 13.000000
endloop
endfacet
facet normal -0.000001 0.000000 1.000000
outer loop
vertex 7.161661 -10.849452 13.000000
vertex 8.105368 -10.163809 13.000000
vertex 6.111272 -9.146166 13.000000
endloop
endfacet
facet normal 0.000000 0.000000 1.000000
outer loop
vertex -11.159834 6.667691 13.000000
vertex -9.146166 6.111272 13.000000
vertex -10.517220 7.641208 13.000000
endloop
endfacet
facet normal 0.000000 0.000000 1.000000
outer loop
vertex -9.701134 5.185364 13.000000
vertex -9.146166 6.111272 13.000000
vertex -11.159834 6.667691 13.000000
endloop
endfacet
facet normal 0.000000 0.000000 1.000000
outer loop
vertex 5.185364 -9.701134 13.000000
vertex 7.161661 -10.849452 13.000000
vertex 6.111272 -9.146166 13.000000
endloop
endfacet
facet normal 0.000001 0.000000 1.000000
outer loop
vertex 6.160293 -11.447742 13.000000
vertex 7.161661 -10.849452 13.000000
vertex 5.185364 -9.701134 13.000000
endloop
endfacet
facet normal 0.000001 0.000000 1.000000
outer loop
vertex -11.712595 5.640489 13.000000
vertex -10.162675 4.209518 13.000000
vertex -9.701134 5.185364 13.000000
endloop
endfacet
facet normal 0.000000 0.000000 1.000000
outer loop
vertex -11.712595 5.640489 13.000000
vertex -9.701134 5.185364 13.000000
vertex -11.159834 6.667691 13.000000
endloop
endfacet
facet normal 0.000001 0.000000 1.000000
outer loop
vertex 5.109325 -11.953861 13.000000
vertex 5.185364 -9.701134 13.000000
vertex 4.209518 -10.162675 13.000000
endloop
endfacet
facet normal 0.000000 0.000000 1.000000
outer loop
vertex 5.109325 -11.953861 13.000000
vertex 6.160293 -11.447742 13.000000
vertex 5.185364 -9.701134 13.000000
endloop
endfacet
facet normal 0.000000 0.000000 1.000000
outer loop
vertex -12.171053 4.567873 13.000000
vertex -10.162675 4.209518 13.000000
vertex -11.712595 5.640489 13.000000
endloop
endfacet
facet normal 0.000000 0.000000 1.000000
outer loop
vertex -12.171053 4.567873 13.000000
vertex -10.526343 3.193131 13.000000
vertex -10.162675 4.209518 13.000000
endloop
endfacet
facet normal 0.000000 0.000000 1.000000
outer loop
vertex 4.017221 -12.363734 13.000000
vertex 5.109325 -11.953861 13.000000
vertex 4.209518 -10.162675 13.000000
endloop
endfacet
facet normal 0.000000 0.000000 1.000000
outer loop
vertex 4.017221 -12.363734 13.000000
vertex 4.209518 -10.162675 13.000000
vertex 3.193131 -10.526343 13.000000
endloop
endfacet
facet normal 0.000002 0.000000 1.000000
outer loop
vertex -12.531517 3.458479 13.000000
vertex -10.526343 3.193131 13.000000
vertex -12.171053 4.567873 13.000000
endloop
endfacet
facet normal 0.000000 0.000000 1.000000
outer loop
vertex -12.531517 3.458479 13.000000
vertex -10.788638 2.145993 13.000000
vertex -10.526343 3.193131 13.000000
endloop
endfacet
facet normal 0.000000 0.000000 1.000000
outer loop
vertex 2.892772 -12.674063 13.000000
vertex 3.193131 -10.526343 13.000000
vertex 2.145993 -10.788638 13.000000
endloop
endfacet
facet normal 0.000000 0.000000 1.000000
outer loop
vertex 2.892772 -12.674063 13.000000
vertex 4.017221 -12.363734 13.000000
vertex 3.193131 -10.526343 13.000000
endloop
endfacet
facet normal 0.000000 0.000000 1.000000
outer loop
vertex -12.791084 2.321240 13.000000
vertex -10.788638 2.145993 13.000000
vertex -12.531517 3.458479 13.000000
endloop
endfacet
facet normal 0.000001 0.000000 1.000000
outer loop
vertex -12.791084 2.321240 13.000000
vertex -10.947032 1.078189 13.000000
vertex -10.788638 2.145993 13.000000
endloop
endfacet
facet normal 0.000000 0.000000 1.000000
outer loop
vertex 1.745032 -12.882347 13.000000
vertex 2.145993 -10.788638 13.000000
vertex 1.078189 -10.947032 13.000000
endloop
endfacet
facet normal -0.000002 0.000000 1.000000
outer loop
vertex 1.745032 -12.882347 13.000000
vertex 2.892772 -12.674063 13.000000
vertex 2.145993 -10.788638 13.000000
endloop
endfacet
facet normal 0.000000 0.000000 1.000000
outer loop
vertex -12.947666 1.165311 13.000000
vertex -10.947032 1.078189 13.000000
vertex -12.791084 2.321240 13.000000
endloop
endfacet
facet normal 0.000000 0.000000 1.000000
outer loop
vertex -12.947666 1.165311 13.000000
vertex -11.000000 0.000000 13.000000
vertex -10.947032 1.078189 13.000000
endloop
endfacet
facet normal -0.000001 0.000000 1.000000
outer loop
vertex 0.583243 -12.986910 13.000000
vertex 1.078189 -10.947032 13.000000
vertex 0.000000 -11.000000 13.000000
endloop
endfacet
facet normal 0.000002 0.000000 1.000000
outer loop
vertex 0.583243 -12.986910 13.000000
vertex 1.745032 -12.882347 13.000000
vertex 1.078189 -10.947032 13.000000
endloop
endfacet
facet normal 0.000000 0.000000 1.000000
outer loop
vertex -13.000000 0.000000 13.000000
vertex -11.000000 0.000000 13.000000
vertex -12.947666 1.165311 13.000000
endloop
endfacet
facet normal 0.000001 0.000000 1.000000
outer loop
vertex -0.583243 -12.986910 13.000000
vertex 0.000000 -11.000000 13.000000
vertex -1.078189 -10.947032 13.000000
endloop
endfacet
facet normal 0.000000 0.000000 1.000000
outer loop
vertex -0.583243 -12.986910 13.000000
vertex 0.583243 -12.986910 13.000000
vertex 0.000000 -11.000000 13.000000
endloop
endfacet
facet normal 0.000000 0.000000 1.000000
outer loop
vertex -12.947666 -1.165311 13.000000
vertex -11.000000 0.000000 13.000000
vertex -13.000000 0.000000 13.000000
endloop
endfacet
facet normal 0.000000 0.000000 1.000000
outer loop
vertex -12.947666 -1.165311 13.000000
vertex -10.947032 -1.078189 13.000000
vertex -11.000000 0.000000 13.000000
endloop
endfacet
facet normal 0.000000 0.000000 1.000000
outer loop
vertex -1.745032 -12.882347 13.000000
vertex -1.078189 -10.947032 13.000000
vertex -2.145993 -10.788638 13.000000
endloop
endfacet
facet normal -0.000002 0.000000 1.000000
outer loop
vertex -1.745032 -12.882347 13.000000
vertex -0.583243 -12.986910 13.000000
vertex -1.078189 -10.947032 13.000000
endloop
endfacet
facet normal 0.000001 0.000000 1.000000
outer loop
vertex -12.791084 -2.321240 13.000000
vertex -10.788638 -2.145993 13.000000
vertex -10.947032 -1.078189 13.000000
endloop
endfacet
facet normal -0.000000 0.000000 1.000000
outer loop
vertex -12.791084 -2.321240 13.000000
vertex -10.947032 -1.078189 13.000000
vertex -12.947666 -1.165311 13.000000
endloop
endfacet
facet normal 0.000000 0.000000 1.000000
outer loop
vertex -2.892772 -12.674063 13.000000
vertex -2.145993 -10.788638 13.000000
vertex -3.193131 -10.526343 13.000000
endloop
endfacet
facet normal 0.000002 0.000000 1.000000
outer loop
vertex -2.892772 -12.674063 13.000000
vertex -1.745032 -12.882347 13.000000
vertex -2.145993 -10.788638 13.000000
endloop
endfacet
facet normal 0.000000 0.000000 1.000000
outer loop
vertex -12.531517 -3.458479 13.000000
vertex -10.526343 -3.193131 13.000000
vertex -10.788638 -2.145993 13.000000
endloop
endfacet
facet normal 0.000000 0.000000 1.000000
outer loop
vertex -12.531517 -3.458479 13.000000
vertex -10.788638 -2.145993 13.000000
vertex -12.791084 -2.321240 13.000000
endloop
endfacet
facet normal 0.000000 0.000000 1.000000
outer loop
vertex -4.017221 -12.363734 13.000000
vertex -3.193131 -10.526343 13.000000
vertex -4.209518 -10.162675 13.000000
endloop
endfacet
facet normal 0.000000 0.000000 1.000000
outer loop
vertex -4.017221 -12.363734 13.000000
vertex -2.892772 -12.674063 13.000000
vertex -3.193131 -10.526343 13.000000
endloop
endfacet
facet normal 0.000000 0.000000 1.000000
outer loop
vertex -12.171053 -4.567873 13.000000
vertex -10.162675 -4.209518 13.000000
vertex -10.526343 -3.193131 13.000000
endloop
endfacet
facet normal 0.000001 0.000000 1.000000
outer loop
vertex -12.171053 -4.567873 13.000000
vertex -10.526343 -3.193131 13.000000
vertex -12.531517 -3.458479 13.000000
endloop
endfacet
facet normal -0.000001 0.000000 1.000000
outer loop
vertex -5.109325 -11.953861 13.000000
vertex -4.209518 -10.162675 13.000000
vertex -5.185364 -9.701134 13.000000
endloop
endfacet
facet normal 0.000002 0.000000 1.000000
outer loop
vertex -5.109325 -11.953861 13.000000
vertex -4.017221 -12.363734 13.000000
vertex -4.209518 -10.162675 13.000000
endloop
endfacet
facet normal 0.000001 0.000000 1.000000
outer loop
vertex -11.712595 -5.640489 13.000000
vertex -9.701134 -5.185364 13.000000
vertex -10.162675 -4.209518 13.000000
endloop
endfacet
facet normal 0.000000 0.000000 1.000000
outer loop
vertex -11.712595 -5.640489 13.000000
vertex -10.162675 -4.209518 13.000000
vertex -12.171053 -4.567873 13.000000
endloop
endfacet
facet normal 0.000000 0.000000 1.000000
outer loop
vertex -6.160293 -11.447742 13.000000
vertex -5.109325 -11.953861 13.000000
vertex -5.185364 -9.701134 13.000000
endloop
endfacet
facet normal 0.000000 0.000000 1.000000
outer loop
vertex -11.159834 -6.667691 13.000000
vertex -9.146166 -6.111272 13.000000
vertex -9.701134 -5.185364 13.000000
endloop
endfacet
facet normal 0.000000 0.000000 1.000000
outer loop
vertex -11.159834 -6.667691 13.000000
vertex -9.701134 -5.185364 13.000000
vertex -11.712595 -5.640489 13.000000
endloop
endfacet
facet normal -0.000001 0.000000 1.000000
outer loop
vertex -7.161661 -10.849452 13.000000
vertex -5.185364 -9.701134 13.000000
vertex -6.111272 -9.146166 13.000000
endloop
endfacet
facet normal 0.000000 0.000000 1.000000
outer loop
vertex -7.161661 -10.849452 13.000000
vertex -6.160293 -11.447742 13.000000
vertex -5.185364 -9.701134 13.000000
endloop
endfacet
facet normal 0.000000 0.000000 1.000000
outer loop
vertex -10.517220 -7.641208 13.000000
vertex -8.503115 -6.978326 13.000000
vertex -9.146166 -6.111272 13.000000
endloop
endfacet
facet normal 0.000000 0.000000 1.000000
outer loop
vertex -10.517220 -7.641208 13.000000
vertex -9.146166 -6.111272 13.000000
vertex -11.159834 -6.667691 13.000000
endloop
endfacet
facet normal 0.000000 0.000000 1.000000
outer loop
vertex -8.105368 -10.163809 13.000000
vertex -6.111272 -9.146166 13.000000
vertex -6.978326 -8.503115 13.000000
endloop
endfacet
facet normal 0.000000 0.000000 1.000000
outer loop
vertex -8.105368 -10.163809 13.000000
vertex -7.161661 -10.849452 13.000000
vertex -6.111272 -9.146166 13.000000
endloop
endfacet
facet normal -0.000001 0.000000 1.000000
outer loop
vertex -9.789929 -8.553204 13.000000
vertex -7.778174 -7.778174 13.000000
vertex -8.503115 -6.978326 13.000000
endloop
endfacet
facet normal 0.000000 0.000000 1.000000
outer loop
vertex -9.789929 -8.553204 13.000000
vertex -8.503115 -6.978326 13.000000
vertex -10.517220 -7.641208 13.000000
endloop
endfacet
facet normal 0.000001 0.000000 1.000000
outer loop
vertex -8.983814 -9.396334 13.000000
vertex -6.978326 -8.503115 13.000000
vertex -7.778174 -7.778174 13.000000
endloop
endfacet
facet normal 0.000000 0.000000 1.000000
outer loop
vertex -8.983814 -9.396334 13.000000
vertex -8.105368 -10.163809 13.000000
vertex -6.978326 -8.503115 13.000000
endloop
endfacet
facet normal -0.000001 0.000000 1.000000
outer loop
vertex -8.983814 -9.396334 13.000000
vertex -7.778174 -7.778174 13.000000
vertex -9.789929 -8.553204 13.000000
endloop
endfacet
facet normal 0.998993 -0.044866 0.000000
outer loop
vertex 12.947666 -1.165311 0.000000
vertex 13.000000 0.000000 13.000000
vertex 12.947666 -1.165311 13.000000
endloop
endfacet
facet normal 0.998993 -0.044864 0.000000
outer loop
vertex 12.947666 -1.165311 0.000000
vertex 13.000000 0.000000 0.000000
vertex 13.000000 0.000000 13.000000
endloop
endfacet
facet normal 0.990950 -0.134235 0.000000
outer loop
vertex 12.791084 -2.321240 0.000000
vertex 12.947666 -1.165311 13.000000
vertex 12.791084 -2.321240 13.000000
endloop
endfacet
facet normal 0.990950 -0.134233 0.000000
outer loop
vertex 12.791084 -2.321240 0.000000
vertex 12.947666 -1.165311 0.000000
vertex 12.947666 -1.165311 13.000000
endloop
endfacet
facet normal 0.974928 -0.222520 0.000000
outer loop
vertex 12.531517 -3.458479 0.000000
vertex 12.791084 -2.321240 13.000000
vertex 12.531517 -3.458479 13.000000
endloop
endfacet
facet normal 0.974928 -0.222520 0.000000
outer loop
vertex 12.531517 -3.458479 0.000000
vertex 12.791084 -2.321240 0.000000
vertex 12.791084 -2.321240 13.000000
endloop
endfacet
facet normal 0.951056 -0.309017 0.000000
outer loop
vertex 12.171053 -4.567873 0.000000
vertex 12.531517 -3.458479 13.000000
vertex 12.171053 -4.567873 13.000000
endloop
endfacet
facet normal 0.951056 -0.309017 0.000000
outer loop
vertex 12.171053 -4.567873 0.000000
vertex 12.531517 -3.458479 0.000000
vertex 12.531517 -3.458479 13.000000
endloop
endfacet
facet normal 0.919528 -0.393025 0.000000
outer loop
vertex 11.712595 -5.640489 0.000000
vertex 12.171053 -4.567873 13.000000
vertex 11.712595 -5.640489 13.000000
endloop
endfacet
facet normal 0.919528 -0.393025 0.000000
outer loop
vertex 11.712595 -5.640489 0.000000
vertex 12.171053 -4.567873 0.000000
vertex 12.171053 -4.567873 13.000000
endloop
endfacet
facet normal 0.880595 -0.473870 0.000000
outer loop
vertex 11.159834 -6.667691 0.000000
vertex 11.712595 -5.640489 13.000000
vertex 11.159834 -6.667691 13.000000
endloop
endfacet
facet normal 0.880596 -0.473868 0.000000
outer loop
vertex 11.159834 -6.667691 0.000000
vertex 11.712595 -5.640489 0.000000
vertex 11.712595 -5.640489 13.000000
endloop
endfacet
facet normal 0.834572 -0.550898 0.000000
outer loop
vertex 10.517220 -7.641208 0.000000
vertex 11.159834 -6.667691 13.000000
vertex 10.517220 -7.641208 13.000000
endloop
endfacet
facet normal 0.781832 -0.623489 0.000000
outer loop
vertex 10.517220 -7.641208 0.000000
vertex 10.517220 -7.641208 13.000000
vertex 9.789929 -8.553204 13.000000
endloop
endfacet
facet normal 0.834574 -0.550896 0.000000
outer loop
vertex 10.517220 -7.641208 0.000000
vertex 11.159834 -6.667691 0.000000
vertex 11.159834 -6.667691 13.000000
endloop
endfacet
facet normal 0.781832 -0.623489 0.000000
outer loop
vertex 9.789929 -8.553204 0.000000
vertex 10.517220 -7.641208 0.000000
vertex 9.789929 -8.553204 13.000000
endloop
endfacet
facet normal 0.722795 -0.691063 0.000000
outer loop
vertex 8.983814 -9.396334 0.000000
vertex 9.789929 -8.553204 13.000000
vertex 8.983814 -9.396334 13.000000
endloop
endfacet
facet normal 0.722794 -0.691063 0.000000
outer loop
vertex 8.983814 -9.396334 0.000000
vertex 9.789929 -8.553204 0.000000
vertex 9.789929 -8.553204 13.000000
endloop
endfacet
facet normal 0.657939 -0.753072 0.000000
outer loop
vertex 8.105368 -10.163809 0.000000
vertex 8.983814 -9.396334 13.000000
vertex 8.105368 -10.163809 13.000000
endloop
endfacet
facet normal 0.587785 -0.809017 0.000000
outer loop
vertex 8.105368 -10.163809 0.000000
vertex 8.105368 -10.163809 13.000000
vertex 7.161661 -10.849452 13.000000
endloop
endfacet
facet normal 0.657939 -0.753072 0.000000
outer loop
vertex 8.105368 -10.163809 0.000000
vertex 8.983814 -9.396334 0.000000
vertex 8.983814 -9.396334 13.000000
endloop
endfacet
facet normal 0.587785 -0.809017 0.000000
outer loop
vertex 7.161661 -10.849452 0.000000
vertex 8.105368 -10.163809 0.000000
vertex 7.161661 -10.849452 13.000000
endloop
endfacet
facet normal 0.512899 -0.858449 0.000000
outer loop
vertex 6.160293 -11.447742 0.000000
vertex 7.161661 -10.849452 13.000000
vertex 6.160293 -11.447742 13.000000
endloop
endfacet
facet normal 0.433884 -0.900969 0.000000
outer loop
vertex 6.160293 -11.447742 0.000000
vertex 6.160293 -11.447742 13.000000
vertex 5.109325 -11.953861 13.000000
endloop
endfacet
facet normal 0.512899 -0.858449 0.000000
outer loop
vertex 6.160293 -11.447742 0.000000
vertex 7.161661 -10.849452 0.000000
vertex 7.161661 -10.849452 13.000000
endloop
endfacet
facet normal 0.433884 -0.900969 0.000000
outer loop
vertex 5.109325 -11.953861 0.000000
vertex 6.160293 -11.447742 0.000000
vertex 5.109325 -11.953861 13.000000
endloop
endfacet
facet normal 0.351374 -0.936235 0.000000
outer loop
vertex 4.017221 -12.363734 0.000000
vertex 5.109325 -11.953861 13.000000
vertex 4.017221 -12.363734 13.000000
endloop
endfacet
facet normal 0.351374 -0.936235 0.000000
outer loop
vertex 4.017221 -12.363734 0.000000
vertex 5.109325 -11.953861 0.000000
vertex 5.109325 -11.953861 13.000000
endloop
endfacet
facet normal 0.266037 -0.963963 0.000000
outer loop
vertex 2.892772 -12.674063 0.000000
vertex 4.017221 -12.363734 0.000000
vertex 4.017221 -12.363734 13.000000
endloop
endfacet
facet normal 0.266037 -0.963963 0.000000
outer loop
vertex 2.892772 -12.674063 0.000000
vertex 4.017221 -12.363734 13.000000
vertex 2.892772 -12.674063 13.000000
endloop
endfacet
facet normal 0.178557 -0.983930 0.000000
outer loop
vertex 1.745032 -12.882347 0.000000
vertex 2.892772 -12.674063 0.000000
vertex 2.892772 -12.674063 13.000000
endloop
endfacet
facet normal 0.178557 -0.983930 0.000000
outer loop
vertex 1.745032 -12.882347 0.000000
vertex 2.892772 -12.674063 13.000000
vertex 1.745032 -12.882347 13.000000
endloop
endfacet
facet normal 0.089639 -0.995974 0.000000
outer loop
vertex 0.583243 -12.986910 0.000000
vertex 1.745032 -12.882347 0.000000
vertex 1.745032 -12.882347 13.000000
endloop
endfacet
facet normal 0.089639 -0.995974 0.000000
outer loop
vertex 0.583243 -12.986910 0.000000
vertex 1.745032 -12.882347 13.000000
vertex 0.583243 -12.986910 13.000000
endloop
endfacet
facet normal 0.000000 -1.000000 0.000000
outer loop
vertex -0.583243 -12.986910 0.000000
vertex 0.583243 -12.986910 13.000000
vertex -0.583243 -12.986910 13.000000
endloop
endfacet
facet normal 0.000000 -1.000000 0.000000
outer loop
vertex -0.583243 -12.986910 0.000000
vertex 0.583243 -12.986910 0.000000
vertex 0.583243 -12.986910 13.000000
endloop
endfacet
facet normal -0.089639 -0.995974 0.000000
outer loop
vertex -0.583243 -12.986910 0.000000
vertex -0.583243 -12.986910 13.000000
vertex -1.745032 -12.882347 13.000000
endloop
endfacet
facet normal -0.089639 -0.995974 0.000000
outer loop
vertex -1.745032 -12.882347 0.000000
vertex -0.583243 -12.986910 0.000000
vertex -1.745032 -12.882347 13.000000
endloop
endfacet
facet normal -0.178557 -0.983930 0.000000
outer loop
vertex -2.892772 -12.674063 0.000000
vertex -1.745032 -12.882347 13.000000
vertex -2.892772 -12.674063 13.000000
endloop
endfacet
facet normal -0.178557 -0.983930 0.000000
outer loop
vertex -2.892772 -12.674063 0.000000
vertex -1.745032 -12.882347 0.000000
vertex -1.745032 -12.882347 13.000000
endloop
endfacet
facet normal -0.266037 -0.963963 0.000000
outer loop
vertex -4.017221 -12.363734 0.000000
vertex -2.892772 -12.674063 13.000000
vertex -4.017221 -12.363734 13.000000
endloop
endfacet
facet normal -0.266037 -0.963963 0.000000
outer loop
vertex -4.017221 -12.363734 0.000000
vertex -2.892772 -12.674063 0.000000
vertex -2.892772 -12.674063 13.000000
endloop
endfacet
facet normal -0.351374 -0.936235 0.000000
outer loop
vertex -5.109325 -11.953861 0.000000
vertex -4.017221 -12.363734 13.000000
vertex -5.109325 -11.953861 13.000000
endloop
endfacet
facet normal -0.351374 -0.936235 0.000000
outer loop
vertex -5.109325 -11.953861 0.000000
vertex -4.017221 -12.363734 0.000000
vertex -4.017221 -12.363734 13.000000
endloop
endfacet
facet normal -0.433884 -0.900969 0.000000
outer loop
vertex -6.160293 -11.447742 0.000000
vertex -5.109325 -11.953861 13.000000
vertex -6.160293 -11.447742 13.000000
endloop
endfacet
facet normal -0.512899 -0.858449 0.000000
outer loop
vertex -6.160293 -11.447742 0.000000
vertex -6.160293 -11.447742 13.000000
vertex -7.161661 -10.849452 13.000000
endloop
endfacet
facet normal -0.433884 -0.900969 0.000000
outer loop
vertex -6.160293 -11.447742 0.000000
vertex -5.109325 -11.953861 0.000000
vertex -5.109325 -11.953861 13.000000
endloop
endfacet
facet normal -0.512899 -0.858449 0.000000
outer loop
vertex -7.161661 -10.849452 0.000000
vertex -6.160293 -11.447742 0.000000
vertex -7.161661 -10.849452 13.000000
endloop
endfacet
facet normal -0.587785 -0.809017 0.000000
outer loop
vertex -8.105368 -10.163809 0.000000
vertex -7.161661 -10.849452 13.000000
vertex -8.105368 -10.163809 13.000000
endloop
endfacet
facet normal -0.587785 -0.809017 0.000000
outer loop
vertex -8.105368 -10.163809 0.000000
vertex -7.161661 -10.849452 0.000000
vertex -7.161661 -10.849452 13.000000
endloop
endfacet
facet normal -0.657939 -0.753072 0.000000
outer loop
vertex -8.983814 -9.396334 0.000000
vertex -8.105368 -10.163809 13.000000
vertex -8.983814 -9.396334 13.000000
endloop
endfacet
facet normal -0.657939 -0.753072 0.000000
outer loop
vertex -8.983814 -9.396334 0.000000
vertex -8.105368 -10.163809 0.000000
vertex -8.105368 -10.163809 13.000000
endloop
endfacet
facet normal -0.722794 -0.691063 0.000000
outer loop
vertex -9.789929 -8.553204 0.000000
vertex -8.983814 -9.396334 13.000000
vertex -9.789929 -8.553204 13.000000
endloop
endfacet
facet normal -0.781832 -0.623489 0.000000
outer loop
vertex -9.789929 -8.553204 0.000000
vertex -9.789929 -8.553204 13.000000
vertex -10.517220 -7.641208 13.000000
endloop
endfacet
facet normal -0.722795 -0.691063 0.000000
outer loop
vertex -9.789929 -8.553204 0.000000
vertex -8.983814 -9.396334 0.000000
vertex -8.983814 -9.396334 13.000000
endloop
endfacet
facet normal -0.781832 -0.623489 0.000000
outer loop
vertex -10.517220 -7.641208 0.000000
vertex -9.789929 -8.553204 0.000000
vertex -10.517220 -7.641208 13.000000
endloop
endfacet
facet normal -0.834574 -0.550896 0.000000
outer loop
vertex -11.159834 -6.667691 0.000000
vertex -10.517220 -7.641208 13.000000
vertex -11.159834 -6.667691 13.000000
endloop
endfacet
facet normal -0.880595 -0.473870 0.000000
outer loop
vertex -11.159834 -6.667691 0.000000
vertex -11.159834 -6.667691 13.000000
vertex -11.712595 -5.640489 13.000000
endloop
endfacet
facet normal -0.834572 -0.550898 0.000000
outer loop
vertex -11.159834 -6.667691 0.000000
vertex -10.517220 -7.641208 0.000000
vertex -10.517220 -7.641208 13.000000
endloop
endfacet
facet normal -0.880596 -0.473868 0.000000
outer loop
vertex -11.712595 -5.640489 0.000000
vertex -11.159834 -6.667691 0.000000
vertex -11.712595 -5.640489 13.000000
endloop
endfacet
facet normal -0.919528 -0.393025 0.000000
outer loop
vertex -12.171053 -4.567873 0.000000
vertex -11.712595 -5.640489 13.000000
vertex -12.171053 -4.567873 13.000000
endloop
endfacet
facet normal -0.919528 -0.393025 0.000000
outer loop
vertex -12.171053 -4.567873 0.000000
vertex -11.712595 -5.640489 0.000000
vertex -11.712595 -5.640489 13.000000
endloop
endfacet
facet normal -0.951056 -0.309017 0.000000
outer loop
vertex -12.531517 -3.458479 0.000000
vertex -12.171053 -4.567873 13.000000
vertex -12.531517 -3.458479 13.000000
endloop
endfacet
facet normal -0.974928 -0.222520 0.000000
outer loop
vertex -12.531517 -3.458479 0.000000
vertex -12.531517 -3.458479 13.000000
vertex -12.791084 -2.321240 13.000000
endloop
endfacet
facet normal -0.951056 -0.309017 0.000000
outer loop
vertex -12.531517 -3.458479 0.000000
vertex -12.171053 -4.567873 0.000000
vertex -12.171053 -4.567873 13.000000
endloop
endfacet
facet normal -0.974928 -0.222520 0.000000
outer loop
vertex -12.791084 -2.321240 0.000000
vertex -12.531517 -3.458479 0.000000
vertex -12.791084 -2.321240 13.000000
endloop
endfacet
facet normal -0.990950 -0.134233 0.000000
outer loop
vertex -12.947666 -1.165311 0.000000
vertex -12.791084 -2.321240 13.000000
vertex -12.947666 -1.165311 13.000000
endloop
endfacet
facet normal -0.998993 -0.044866 0.000000
outer loop
vertex -12.947666 -1.165311 0.000000
vertex -12.947666 -1.165311 13.000000
vertex -13.000000 0.000000 13.000000
endloop
endfacet
facet normal -0.990950 -0.134235 0.000000
outer loop
vertex -12.947666 -1.165311 0.000000
vertex -12.791084 -2.321240 0.000000
vertex -12.791084 -2.321240 13.000000
endloop
endfacet
facet normal -0.998993 -0.044864 0.000000
outer loop
vertex -13.000000 -0.000000 0.000000
vertex -12.947666 -1.165311 0.000000
vertex -13.000000 0.000000 13.000000
endloop
endfacet
facet normal -0.998993 0.044866 0.000000
outer loop
vertex -12.947666 1.165311 -0.000000
vertex -13.000000 0.000000 13.000000
vertex -12.947666 1.165311 13.000000
endloop
endfacet
facet normal -0.998993 0.044864 0.000000
outer loop
vertex -12.947666 1.165311 -0.000000
vertex -13.000000 -0.000000 0.000000
vertex -13.000000 0.000000 13.000000
endloop
endfacet
facet normal -0.990950 0.134235 0.000000
outer loop
vertex -12.791084 2.321240 -0.000000
vertex -12.947666 1.165311 13.000000
vertex -12.791084 2.321240 13.000000
endloop
endfacet
facet normal -0.974928 0.222520 0.000000
outer loop
vertex -12.791084 2.321240 -0.000000
vertex -12.791084 2.321240 13.000000
vertex -12.531517 3.458479 13.000000
endloop
endfacet
facet normal -0.990950 0.134233 0.000000
outer loop
vertex -12.791084 2.321240 -0.000000
vertex -12.947666 1.165311 -0.000000
vertex -12.947666 1.165311 13.000000
endloop
endfacet
facet normal -0.974928 0.222520 0.000000
outer loop
vertex -12.531517 3.458479 -0.000000
vertex -12.791084 2.321240 -0.000000
vertex -12.531517 3.458479 13.000000
endloop
endfacet
facet normal -0.951056 0.309017 0.000000
outer loop
vertex -12.171053 4.567873 -0.000000
vertex -12.531517 3.458479 -0.000000
vertex -12.531517 3.458479 13.000000
endloop
endfacet
facet normal -0.951056 0.309017 0.000000
outer loop
vertex -12.171053 4.567873 -0.000000
vertex -12.531517 3.458479 13.000000
vertex -12.171053 4.567873 13.000000
endloop
endfacet
facet normal -0.919528 0.393025 0.000000
outer loop
vertex -12.171053 4.567873 -0.000000
vertex -12.171053 4.567873 13.000000
vertex -11.712595 5.640489 13.000000
endloop
endfacet
facet normal -0.919528 0.393025 0.000000
outer loop
vertex -11.712595 5.640489 -0.000000
vertex -12.171053 4.567873 -0.000000
vertex -11.712595 5.640489 13.000000
endloop
endfacet
facet normal -0.880596 0.473868 0.000000
outer loop
vertex -11.159834 6.667691 -0.000000
vertex -11.712595 5.640489 -0.000000
vertex -11.712595 5.640489 13.000000
endloop
endfacet
facet normal -0.880595 0.473870 0.000000
outer loop
vertex -11.159834 6.667691 -0.000000
vertex -11.712595 5.640489 13.000000
vertex -11.159834 6.667691 13.000000
endloop
endfacet
facet normal -0.834574 0.550896 0.000000
outer loop
vertex -10.517220 7.641208 -0.000000
vertex -11.159834 6.667691 -0.000000
vertex -11.159834 6.667691 13.000000
endloop
endfacet
facet normal -0.834572 0.550898 0.000000
outer loop
vertex -10.517220 7.641208 -0.000000
vertex -11.159834 6.667691 13.000000
vertex -10.517220 7.641208 13.000000
endloop
endfacet
facet normal -0.781832 0.623489 0.000000
outer loop
vertex -10.517220 7.641208 -0.000000
vertex -10.517220 7.641208 13.000000
vertex -9.789929 8.553204 13.000000
endloop
endfacet
facet normal -0.781832 0.623489 0.000000
outer loop
vertex -9.789929 8.553204 -0.000000
vertex -10.517220 7.641208 -0.000000
vertex -9.789929 8.553204 13.000000
endloop
endfacet
facet normal -0.722794 0.691063 0.000000
outer loop
vertex -8.983814 9.396334 -0.000000
vertex -9.789929 8.553204 -0.000000
vertex -9.789929 8.553204 13.000000
endloop
endfacet
facet normal -0.722795 0.691063 0.000000
outer loop
vertex -8.983814 9.396334 -0.000000
vertex -9.789929 8.553204 13.000000
vertex -8.983814 9.396334 13.000000
endloop
endfacet
facet normal -0.657939 0.753072 0.000000
outer loop
vertex -8.983814 9.396334 -0.000000
vertex -8.983814 9.396334 13.000000
vertex -8.105368 10.163809 13.000000
endloop
endfacet
facet normal -0.657939 0.753072 0.000000
outer loop
vertex -8.105368 10.163809 -0.000000
vertex -8.983814 9.396334 -0.000000
vertex -8.105368 10.163809 13.000000
endloop
endfacet
facet normal -0.587785 0.809017 0.000000
outer loop
vertex -7.161661 10.849452 -0.000000
vertex -8.105368 10.163809 -0.000000
vertex -8.105368 10.163809 13.000000
endloop
endfacet
facet normal -0.587785 0.809017 0.000000
outer loop
vertex -7.161661 10.849452 -0.000000
vertex -8.105368 10.163809 13.000000
vertex -7.161661 10.849452 13.000000
endloop
endfacet
facet normal -0.512899 0.858449 0.000000
outer loop
vertex -6.160293 11.447742 -0.000000
vertex -7.161661 10.849452 -0.000000
vertex -7.161661 10.849452 13.000000
endloop
endfacet
facet normal -0.512899 0.858449 0.000000
outer loop
vertex -6.160293 11.447742 -0.000000
vertex -7.161661 10.849452 13.000000
vertex -6.160293 11.447742 13.000000
endloop
endfacet
facet normal -0.433884 0.900969 0.000000
outer loop
vertex -6.160293 11.447742 -0.000000
vertex -6.160293 11.447742 13.000000
vertex -5.109325 11.953861 13.000000
endloop
endfacet
facet normal -0.433884 0.900969 0.000000
outer loop
vertex -5.109325 11.953861 -0.000000
vertex -6.160293 11.447742 -0.000000
vertex -5.109325 11.953861 13.000000
endloop
endfacet
facet normal -0.351374 0.936235 0.000000
outer loop
vertex -4.017221 12.363734 -0.000000
vertex -5.109325 11.953861 -0.000000
vertex -5.109325 11.953861 13.000000
endloop
endfacet
facet normal -0.351374 0.936235 0.000000
outer loop
vertex -4.017221 12.363734 -0.000000
vertex -5.109325 11.953861 13.000000
vertex -4.017221 12.363734 13.000000
endloop
endfacet
facet normal -0.266037 0.963963 0.000000
outer loop
vertex -4.017221 12.363734 -0.000000
vertex -4.017221 12.363734 13.000000
vertex -2.892772 12.674063 13.000000
endloop
endfacet
facet normal -0.266037 0.963963 0.000000
outer loop
vertex -2.892772 12.674063 -0.000000
vertex -4.017221 12.363734 -0.000000
vertex -2.892772 12.674063 13.000000
endloop
endfacet
facet normal -0.178557 0.983930 0.000000
outer loop
vertex -1.745032 12.882347 -0.000000
vertex -2.892772 12.674063 -0.000000
vertex -2.892772 12.674063 13.000000
endloop
endfacet
facet normal -0.178557 0.983930 0.000000
outer loop
vertex -1.745032 12.882347 -0.000000
vertex -2.892772 12.674063 13.000000
vertex -1.745032 12.882347 13.000000
endloop
endfacet
facet normal -0.089639 0.995974 0.000000
outer loop
vertex -0.583243 12.986910 -0.000000
vertex -1.745032 12.882347 13.000000
vertex -0.583243 12.986910 13.000000
endloop
endfacet
facet normal 0.000000 1.000000 0.000000
outer loop
vertex -0.583243 12.986910 -0.000000
vertex -0.583243 12.986910 13.000000
vertex 0.583243 12.986910 13.000000
endloop
endfacet
facet normal -0.089639 0.995974 0.000000
outer loop
vertex -0.583243 12.986910 -0.000000
vertex -1.745032 12.882347 -0.000000
vertex -1.745032 12.882347 13.000000
endloop
endfacet
facet normal 0.000000 1.000000 0.000000
outer loop
vertex 0.583243 12.986910 -0.000000
vertex -0.583243 12.986910 -0.000000
vertex 0.583243 12.986910 13.000000
endloop
endfacet
facet normal 0.089639 0.995974 0.000000
outer loop
vertex 1.745032 12.882347 -0.000000
vertex 0.583243 12.986910 13.000000
vertex 1.745032 12.882347 13.000000
endloop
endfacet
facet normal 0.178557 0.983930 0.000000
outer loop
vertex 1.745032 12.882347 -0.000000
vertex 1.745032 12.882347 13.000000
vertex 2.892772 12.674063 13.000000
endloop
endfacet
facet normal 0.089639 0.995974 0.000000
outer loop
vertex 1.745032 12.882347 -0.000000
vertex 0.583243 12.986910 -0.000000
vertex 0.583243 12.986910 13.000000
endloop
endfacet
facet normal 0.178557 0.983930 0.000000
outer loop
vertex 2.892772 12.674063 -0.000000
vertex 1.745032 12.882347 -0.000000
vertex 2.892772 12.674063 13.000000
endloop
endfacet
facet normal 0.266037 0.963963 0.000000
outer loop
vertex 4.017221 12.363734 -0.000000
vertex 2.892772 12.674063 13.000000
vertex 4.017221 12.363734 13.000000
endloop
endfacet
facet normal 0.351374 0.936235 0.000000
outer loop
vertex 4.017221 12.363734 -0.000000
vertex 4.017221 12.363734 13.000000
vertex 5.109325 11.953861 13.000000
endloop
endfacet
facet normal 0.266037 0.963963 0.000000
outer loop
vertex 4.017221 12.363734 -0.000000
vertex 2.892772 12.674063 -0.000000
vertex 2.892772 12.674063 13.000000
endloop
endfacet
facet normal 0.351374 0.936235 0.000000
outer loop
vertex 5.109325 11.953861 -0.000000
vertex 4.017221 12.363734 -0.000000
vertex 5.109325 11.953861 13.000000
endloop
endfacet
facet normal 0.433884 0.900969 0.000000
outer loop
vertex 6.160293 11.447742 -0.000000
vertex 5.109325 11.953861 13.000000
vertex 6.160293 11.447742 13.000000
endloop
endfacet
facet normal 0.433884 0.900969 0.000000
outer loop
vertex 6.160293 11.447742 -0.000000
vertex 5.109325 11.953861 -0.000000
vertex 5.109325 11.953861 13.000000
endloop
endfacet
facet normal 0.512899 0.858449 0.000000
outer loop
vertex 7.161661 10.849452 -0.000000
vertex 6.160293 11.447742 13.000000
vertex 7.161661 10.849452 13.000000
endloop
endfacet
facet normal 0.512899 0.858449 0.000000
outer loop
vertex 7.161661 10.849452 -0.000000
vertex 6.160293 11.447742 -0.000000
vertex 6.160293 11.447742 13.000000
endloop
endfacet
facet normal 0.587785 0.809017 0.000000
outer loop
vertex 8.105368 10.163809 -0.000000
vertex 7.161661 10.849452 13.000000
vertex 8.105368 10.163809 13.000000
endloop
endfacet
facet normal 0.587785 0.809017 0.000000
outer loop
vertex 8.105368 10.163809 -0.000000
vertex 7.161661 10.849452 -0.000000
vertex 7.161661 10.849452 13.000000
endloop
endfacet
facet normal 0.657939 0.753072 0.000000
outer loop
vertex 8.983814 9.396334 -0.000000
vertex 8.105368 10.163809 13.000000
vertex 8.983814 9.396334 13.000000
endloop
endfacet
facet normal 0.722795 0.691063 0.000000
outer loop
vertex 8.983814 9.396334 -0.000000
vertex 8.983814 9.396334 13.000000
vertex 9.789929 8.553204 13.000000
endloop
endfacet
facet normal 0.657939 0.753072 0.000000
outer loop
vertex 8.983814 9.396334 -0.000000
vertex 8.105368 10.163809 -0.000000
vertex 8.105368 10.163809 13.000000
endloop
endfacet
facet normal 0.722794 0.691063 0.000000
outer loop
vertex 9.789929 8.553204 -0.000000
vertex 8.983814 9.396334 -0.000000
vertex 9.789929 8.553204 13.000000
endloop
endfacet
facet normal 0.781832 0.623489 0.000000
outer loop
vertex 10.517220 7.641208 -0.000000
vertex 9.789929 8.553204 13.000000
vertex 10.517220 7.641208 13.000000
endloop
endfacet
facet normal 0.781832 0.623489 0.000000
outer loop
vertex 10.517220 7.641208 -0.000000
vertex 9.789929 8.553204 -0.000000
vertex 9.789929 8.553204 13.000000
endloop
endfacet
facet normal 0.834574 0.550896 0.000000
outer loop
vertex 11.159834 6.667691 -0.000000
vertex 10.517220 7.641208 13.000000
vertex 11.159834 6.667691 13.000000
endloop
endfacet
facet normal 0.834572 0.550898 0.000000
outer loop
vertex 11.159834 6.667691 -0.000000
vertex 10.517220 7.641208 -0.000000
vertex 10.517220 7.641208 13.000000
endloop
endfacet
facet normal 0.880595 0.473870 0.000000
outer loop
vertex 11.712595 5.640489 -0.000000
vertex 11.159834 6.667691 -0.000000
vertex 11.159834 6.667691 13.000000
endloop
endfacet
facet normal 0.880596 0.473868 0.000000
outer loop
vertex 11.712595 5.640489 -0.000000
vertex 11.159834 6.667691 13.000000
vertex 11.712595 5.640489 13.000000
endloop
endfacet
facet normal 0.919528 0.393025 0.000000
outer loop
vertex 12.171053 4.567873 -0.000000
vertex 11.712595 5.640489 -0.000000
vertex 11.712595 5.640489 13.000000
endloop
endfacet
facet normal 0.919528 0.393025 0.000000
outer loop
vertex 12.171053 4.567873 -0.000000
vertex 11.712595 5.640489 13.000000
vertex 12.171053 4.567873 13.000000
endloop
endfacet
facet normal 0.951056 0.309017 0.000000
outer loop
vertex 12.171053 4.567873 -0.000000
vertex 12.171053 4.567873 13.000000
vertex 12.531517 3.458479 13.000000
endloop
endfacet
facet normal 0.951056 0.309017 0.000000
outer loop
vertex 12.531517 3.458479 -0.000000
vertex 12.171053 4.567873 -0.000000
vertex 12.531517 3.458479 13.000000
endloop
endfacet
facet normal 0.974928 0.222520 0.000000
outer loop
vertex 12.791084 2.321240 -0.000000
vertex 12.531517 3.458479 -0.000000
vertex 12.531517 3.458479 13.000000
endloop
endfacet
facet normal 0.974928 0.222520 0.000000
outer loop
vertex 12.791084 2.321240 -0.000000
vertex 12.531517 3.458479 13.000000
vertex 12.791084 2.321240 13.000000
endloop
endfacet
facet normal 0.990950 0.134235 0.000000
outer loop
vertex 12.947666 1.165311 -0.000000
vertex 12.791084 2.321240 -0.000000
vertex 12.791084 2.321240 13.000000
endloop
endfacet
facet normal 0.990950 0.134233 0.000000
outer loop
vertex 12.947666 1.165311 -0.000000
vertex 12.791084 2.321240 13.000000
vertex 12.947666 1.165311 13.000000
endloop
endfacet
facet normal 0.998993 0.044866 0.000000
outer loop
vertex 13.000000 0.000000 0.000000
vertex 12.947666 1.165311 -0.000000
vertex 12.947666 1.165311 13.000000
endloop
endfacet
facet normal 0.998993 0.044864 0.000000
outer loop
vertex 13.000000 0.000000 0.000000
vertex 12.947666 1.165311 13.000000
vertex 13.000000 0.000000 13.000000
endloop
endfacet
facet normal 0.000000 -0.000000 -1.000000
outer loop
vertex -7.778174 7.778174 -0.000000
vertex -9.789929 8.553204 -0.000000
vertex -8.983814 9.396334 -0.000000
endloop
endfacet
facet normal -0.000000 -0.000000 -1.000000
outer loop
vertex -8.503115 6.978326 -0.000000
vertex -10.517220 7.641208 -0.000000
vertex -9.789929 8.553204 -0.000000
endloop
endfacet
facet normal 0.000000 -0.000000 -1.000000
outer loop
vertex -8.503115 6.978326 -0.000000
vertex -9.789929 8.553204 -0.000000
vertex -7.778174 7.778174 -0.000000
endloop
endfacet
facet normal 0.000000 -0.000000 -1.000000
outer loop
vertex -6.978326 8.503115 -0.000000
vertex -8.983814 9.396334 -0.000000
vertex -8.105368 10.163809 -0.000000
endloop
endfacet
facet normal -0.000000 -0.000000 -1.000000
outer loop
vertex -6.978326 8.503115 -0.000000
vertex -7.778174 7.778174 -0.000000
vertex -8.983814 9.396334 -0.000000
endloop
endfacet
facet normal 0.000000 -0.000000 -1.000000
outer loop
vertex -9.146166 6.111272 -0.000000
vertex -11.159834 6.667691 -0.000000
vertex -10.517220 7.641208 -0.000000
endloop
endfacet
facet normal 0.000000 -0.000000 -1.000000
outer loop
vertex -9.146166 6.111272 -0.000000
vertex -10.517220 7.641208 -0.000000
vertex -8.503115 6.978326 -0.000000
endloop
endfacet
facet normal 0.000000 -0.000000 -1.000000
outer loop
vertex -6.111272 9.146166 -0.000000
vertex -8.105368 10.163809 -0.000000
vertex -7.161661 10.849452 -0.000000
endloop
endfacet
facet normal 0.000000 -0.000000 -1.000000
outer loop
vertex -6.111272 9.146166 -0.000000
vertex -6.978326 8.503115 -0.000000
vertex -8.105368 10.163809 -0.000000
endloop
endfacet
facet normal 0.000000 -0.000000 -1.000000
outer loop
vertex -9.701134 5.185364 -0.000000
vertex -11.712595 5.640489 -0.000000
vertex -11.159834 6.667691 -0.000000
endloop
endfacet
facet normal -0.000000 -0.000000 -1.000000
outer loop
vertex -9.701134 5.185364 -0.000000
vertex -11.159834 6.667691 -0.000000
vertex -9.146166 6.111272 -0.000000
endloop
endfacet
facet normal -0.000000 -0.000000 -1.000000
outer loop
vertex -5.185364 9.701134 -0.000000
vertex -7.161661 10.849452 -0.000000
vertex -6.160293 11.447742 -0.000000
endloop
endfacet
facet normal 0.000000 -0.000000 -1.000000
outer loop
vertex -5.185364 9.701134 -0.000000
vertex -6.160293 11.447742 -0.000000
vertex -5.109325 11.953861 -0.000000
endloop
endfacet
facet normal 0.000000 -0.000000 -1.000000
outer loop
vertex -5.185364 9.701134 -0.000000
vertex -6.111272 9.146166 -0.000000
vertex -7.161661 10.849452 -0.000000
endloop
endfacet
facet normal 0.000000 -0.000000 -1.000000
outer loop
vertex -10.162675 4.209518 -0.000000
vertex -12.171053 4.567873 -0.000000
vertex -11.712595 5.640489 -0.000000
endloop
endfacet
facet normal -0.000000 -0.000000 -1.000000
outer loop
vertex -10.162675 4.209518 -0.000000
vertex -11.712595 5.640489 -0.000000
vertex -9.701134 5.185364 -0.000000
endloop
endfacet
facet normal 0.000000 -0.000000 -1.000000
outer loop
vertex -4.209518 10.162675 -0.000000
vertex -5.185364 9.701134 -0.000000
vertex -5.109325 11.953861 -0.000000
endloop
endfacet
facet normal -0.000000 -0.000000 -1.000000
outer loop
vertex -4.209518 10.162675 -0.000000
vertex -5.109325 11.953861 -0.000000
vertex -4.017221 12.363734 -0.000000
endloop
endfacet
facet normal 0.000000 -0.000000 -1.000000
outer loop
vertex -10.526343 3.193131 -0.000000
vertex -12.531517 3.458479 -0.000000
vertex -12.171053 4.567873 -0.000000
endloop
endfacet
facet normal -0.000000 -0.000000 -1.000000
outer loop
vertex -10.526343 3.193131 -0.000000
vertex -12.171053 4.567873 -0.000000
vertex -10.162675 4.209518 -0.000000
endloop
endfacet
facet normal 0.000000 -0.000000 -1.000000
outer loop
vertex -3.193131 10.526343 -0.000000
vertex -4.017221 12.363734 -0.000000
vertex -2.892772 12.674063 -0.000000
endloop
endfacet
facet normal 0.000000 -0.000000 -1.000000
outer loop
vertex -3.193131 10.526343 -0.000000
vertex -4.209518 10.162675 -0.000000
vertex -4.017221 12.363734 -0.000000
endloop
endfacet
facet normal 0.000000 -0.000000 -1.000000
outer loop
vertex -10.788638 2.145993 -0.000000
vertex -12.791084 2.321240 -0.000000
vertex -12.531517 3.458479 -0.000000
endloop
endfacet
facet normal -0.000000 -0.000000 -1.000000
outer loop
vertex -10.788638 2.145993 -0.000000
vertex -12.531517 3.458479 -0.000000
vertex -10.526343 3.193131 -0.000000
endloop
endfacet
facet normal -0.000000 -0.000000 -1.000000
outer loop
vertex -2.145993 10.788638 -0.000000
vertex -2.892772 12.674063 -0.000000
vertex -1.745032 12.882347 -0.000000
endloop
endfacet
facet normal 0.000000 -0.000000 -1.000000
outer loop
vertex -2.145993 10.788638 -0.000000
vertex -3.193131 10.526343 -0.000000
vertex -2.892772 12.674063 -0.000000
endloop
endfacet
facet normal 0.000000 -0.000000 -1.000000
outer loop
vertex -10.947032 1.078189 -0.000000
vertex -12.947666 1.165311 -0.000000
vertex -12.791084 2.321240 -0.000000
endloop
endfacet
facet normal -0.000000 -0.000000 -1.000000
outer loop
vertex -10.947032 1.078189 -0.000000
vertex -12.791084 2.321240 -0.000000
vertex -10.788638 2.145993 -0.000000
endloop
endfacet
facet normal 0.000000 -0.000000 -1.000000
outer loop
vertex -1.078189 10.947032 -0.000000
vertex -1.745032 12.882347 -0.000000
vertex -0.583243 12.986910 -0.000000
endloop
endfacet
facet normal 0.000000 -0.000000 -1.000000
outer loop
vertex -1.078189 10.947032 -0.000000
vertex -2.145993 10.788638 -0.000000
vertex -1.745032 12.882347 -0.000000
endloop
endfacet
facet normal 0.000000 -0.000000 -1.000000
outer loop
vertex -11.000000 0.000000 -0.000000
vertex -12.947666 -1.165311 0.000000
vertex -13.000000 -0.000000 0.000000
endloop
endfacet
facet normal 0.000000 -0.000000 -1.000000
outer loop
vertex -11.000000 0.000000 -0.000000
vertex -13.000000 -0.000000 0.000000
vertex -12.947666 1.165311 -0.000000
endloop
endfacet
facet normal 0.000000 -0.000000 -1.000000
outer loop
vertex -11.000000 0.000000 -0.000000
vertex -12.947666 1.165311 -0.000000
vertex -10.947032 1.078189 -0.000000
endloop
endfacet
facet normal -0.000000 -0.000000 -1.000000
outer loop
vertex 0.000000 11.000000 -0.000000
vertex -1.078189 10.947032 -0.000000
vertex -0.583243 12.986910 -0.000000
endloop
endfacet
facet normal 0.000000 -0.000000 -1.000000
outer loop
vertex 0.000000 11.000000 -0.000000
vertex -0.583243 12.986910 -0.000000
vertex 0.583243 12.986910 -0.000000
endloop
endfacet
facet normal -0.000000 -0.000000 -1.000000
outer loop
vertex -10.947032 -1.078189 0.000000
vertex -12.791084 -2.321240 0.000000
vertex -12.947666 -1.165311 0.000000
endloop
endfacet
facet normal -0.000000 -0.000000 -1.000000
outer loop
vertex -10.947032 -1.078189 0.000000
vertex -12.947666 -1.165311 0.000000
vertex -11.000000 0.000000 -0.000000
endloop
endfacet
facet normal 0.000000 -0.000000 -1.000000
outer loop
vertex 1.078189 10.947032 -0.000000
vertex 0.000000 11.000000 -0.000000
vertex 0.583243 12.986910 -0.000000
endloop
endfacet
facet normal -0.000000 -0.000000 -1.000000
outer loop
vertex 1.078189 10.947032 -0.000000
vertex 0.583243 12.986910 -0.000000
vertex 1.745032 12.882347 -0.000000
endloop
endfacet
facet normal 0.000000 -0.000000 -1.000000
outer loop
vertex -10.788638 -2.145993 0.000000
vertex -12.791084 -2.321240 0.000000
vertex -10.947032 -1.078189 0.000000
endloop
endfacet
facet normal 0.000000 -0.000000 -1.000000
outer loop
vertex -10.788638 -2.145993 0.000000
vertex -12.531517 -3.458479 0.000000
vertex -12.791084 -2.321240 0.000000
endloop
endfacet
facet normal -0.000000 -0.000000 -1.000000
outer loop
vertex 2.145993 10.788638 -0.000000
vertex 1.078189 10.947032 -0.000000
vertex 1.745032 12.882347 -0.000000
endloop
endfacet
facet normal 0.000000 -0.000000 -1.000000
outer loop
vertex 2.145993 10.788638 -0.000000
vertex 1.745032 12.882347 -0.000000
vertex 2.892772 12.674063 -0.000000
endloop
endfacet
facet normal 0.000000 -0.000000 -1.000000
outer loop
vertex -10.526343 -3.193131 0.000000
vertex -12.531517 -3.458479 0.000000
vertex -10.788638 -2.145993 0.000000
endloop
endfacet
facet normal -0.000000 -0.000000 -1.000000
outer loop
vertex -10.526343 -3.193131 0.000000
vertex -12.171053 -4.567873 0.000000
vertex -12.531517 -3.458479 0.000000
endloop
endfacet
facet normal 0.000000 -0.000000 -1.000000
outer loop
vertex 3.193131 10.526343 -0.000000
vertex 2.145993 10.788638 -0.000000
vertex 2.892772 12.674063 -0.000000
endloop
endfacet
facet normal -0.000000 -0.000000 -1.000000
outer loop
vertex 3.193131 10.526343 -0.000000
vertex 2.892772 12.674063 -0.000000
vertex 4.017221 12.363734 -0.000000
endloop
endfacet
facet normal 0.000000 -0.000000 -1.000000
outer loop
vertex -10.162675 -4.209518 0.000000
vertex -11.712595 -5.640489 0.000000
vertex -12.171053 -4.567873 0.000000
endloop
endfacet
facet normal 0.000000 -0.000000 -1.000000
outer loop
vertex -10.162675 -4.209518 0.000000
vertex -12.171053 -4.567873 0.000000
vertex -10.526343 -3.193131 0.000000
endloop
endfacet
facet normal 0.000000 -0.000000 -1.000000
outer loop
vertex 4.209518 10.162675 -0.000000
vertex 3.193131 10.526343 -0.000000
vertex 4.017221 12.363734 -0.000000
endloop
endfacet
facet normal 0.000000 -0.000000 -1.000000
outer loop
vertex 4.209518 10.162675 -0.000000
vertex 4.017221 12.363734 -0.000000
vertex 5.109325 11.953861 -0.000000
endloop
endfacet
facet normal 0.000000 -0.000000 -1.000000
outer loop
vertex -9.701134 -5.185364 0.000000
vertex -11.712595 -5.640489 0.000000
vertex -10.162675 -4.209518 0.000000
endloop
endfacet
facet normal -0.000000 -0.000000 -1.000000
outer loop
vertex 5.185364 9.701134 -0.000000
vertex 4.209518 10.162675 -0.000000
vertex 5.109325 11.953861 -0.000000
endloop
endfacet
facet normal -0.000000 -0.000000 -1.000000
outer loop
vertex 5.185364 9.701134 -0.000000
vertex 5.109325 11.953861 -0.000000
vertex 6.160293 11.447742 -0.000000
endloop
endfacet
facet normal -0.000000 -0.000000 -1.000000
outer loop
vertex -11.159834 -6.667691 0.000000
vertex -11.712595 -5.640489 0.000000
vertex -9.701134 -5.185364 0.000000
endloop
endfacet
facet normal 0.000000 -0.000000 -1.000000
outer loop
vertex 7.161661 10.849452 -0.000000
vertex 5.185364 9.701134 -0.000000
vertex 6.160293 11.447742 -0.000000
endloop
endfacet
facet normal 0.000000 -0.000000 -1.000000
outer loop
vertex -9.146166 -6.111272 0.000000
vertex -11.159834 -6.667691 0.000000
vertex -9.701134 -5.185364 0.000000
endloop
endfacet
facet normal 0.000000 -0.000000 -1.000000
outer loop
vertex 6.111272 9.146166 -0.000000
vertex 5.185364 9.701134 -0.000000
vertex 7.161661 10.849452 -0.000000
endloop
endfacet
facet normal 0.000000 -0.000000 -1.000000
outer loop
vertex -10.517220 -7.641208 0.000000
vertex -11.159834 -6.667691 0.000000
vertex -9.146166 -6.111272 0.000000
endloop
endfacet
facet normal 0.000000 -0.000000 -1.000000
outer loop
vertex 8.105368 10.163809 -0.000000
vertex 6.111272 9.146166 -0.000000
vertex 7.161661 10.849452 -0.000000
endloop
endfacet
facet normal 0.000000 -0.000000 -1.000000
outer loop
vertex -8.503115 -6.978326 0.000000
vertex -10.517220 -7.641208 0.000000
vertex -9.146166 -6.111272 0.000000
endloop
endfacet
facet normal 0.000000 -0.000000 -1.000000
outer loop
vertex 6.978326 8.503115 -0.000000
vertex 6.111272 9.146166 -0.000000
vertex 8.105368 10.163809 -0.000000
endloop
endfacet
facet normal 0.000000 -0.000000 -1.000000
outer loop
vertex -9.789929 -8.553204 0.000000
vertex -10.517220 -7.641208 0.000000
vertex -8.503115 -6.978326 0.000000
endloop
endfacet
facet normal 0.000000 -0.000000 -1.000000
outer loop
vertex 8.983814 9.396334 -0.000000
vertex 6.978326 8.503115 -0.000000
vertex 8.105368 10.163809 -0.000000
endloop
endfacet
facet normal 0.000000 -0.000000 -1.000000
outer loop
vertex -7.778174 -7.778174 0.000000
vertex -9.789929 -8.553204 0.000000
vertex -8.503115 -6.978326 0.000000
endloop
endfacet
facet normal 0.000000 -0.000000 -1.000000
outer loop
vertex 7.778174 7.778174 -0.000000
vertex 6.978326 8.503115 -0.000000
vertex 8.983814 9.396334 -0.000000
endloop
endfacet
facet normal -0.000000 -0.000000 -1.000000
outer loop
vertex -8.983814 -9.396334 0.000000
vertex -9.789929 -8.553204 0.000000
vertex -7.778174 -7.778174 0.000000
endloop
endfacet
facet normal -0.000000 -0.000000 -1.000000
outer loop
vertex 9.789929 8.553204 -0.000000
vertex 7.778174 7.778174 -0.000000
vertex 8.983814 9.396334 -0.000000
endloop
endfacet
facet normal 0.000000 -0.000000 -1.000000
outer loop
vertex -6.978326 -8.503115 0.000000
vertex -8.983814 -9.396334 0.000000
vertex -7.778174 -7.778174 0.000000
endloop
endfacet
facet normal -0.000000 -0.000000 -1.000000
outer loop
vertex 8.503115 6.978326 -0.000000
vertex 7.778174 7.778174 -0.000000
vertex 9.789929 8.553204 -0.000000
endloop
endfacet
facet normal -0.000000 -0.000000 -1.000000
outer loop
vertex -8.105368 -10.163809 0.000000
vertex -8.983814 -9.396334 0.000000
vertex -6.978326 -8.503115 0.000000
endloop
endfacet
facet normal 0.000000 -0.000000 -1.000000
outer loop
vertex 10.517220 7.641208 -0.000000
vertex 8.503115 6.978326 -0.000000
vertex 9.789929 8.553204 -0.000000
endloop
endfacet
facet normal 0.000000 -0.000000 -1.000000
outer loop
vertex -6.111272 -9.146166 0.000000
vertex -8.105368 -10.163809 0.000000
vertex -6.978326 -8.503115 0.000000
endloop
endfacet
facet normal 0.000000 -0.000000 -1.000000
outer loop
vertex 9.146166 6.111272 -0.000000
vertex 8.503115 6.978326 -0.000000
vertex 10.517220 7.641208 -0.000000
endloop
endfacet
facet normal 0.000000 -0.000000 -1.000000
outer loop
vertex -7.161661 -10.849452 0.000000
vertex -8.105368 -10.163809 0.000000
vertex -6.111272 -9.146166 0.000000
endloop
endfacet
facet normal 0.000000 -0.000000 -1.000000
outer loop
vertex 11.159834 6.667691 -0.000000
vertex 9.146166 6.111272 -0.000000
vertex 10.517220 7.641208 -0.000000
endloop
endfacet
facet normal 0.000000 -0.000000 -1.000000
outer loop
vertex -5.185364 -9.701134 0.000000
vertex -7.161661 -10.849452 0.000000
vertex -6.111272 -9.146166 0.000000
endloop
endfacet
facet normal 0.000000 -0.000000 -1.000000
outer loop
vertex 9.701134 5.185364 -0.000000
vertex 9.146166 6.111272 -0.000000
vertex 11.159834 6.667691 -0.000000
endloop
endfacet
facet normal 0.000000 -0.000000 -1.000000
outer loop
vertex -6.160293 -11.447742 0.000000
vertex -7.161661 -10.849452 0.000000
vertex -5.185364 -9.701134 0.000000
endloop
endfacet
facet normal 0.000000 -0.000000 -1.000000
outer loop
vertex 11.712595 5.640489 -0.000000
vertex 10.162675 4.209518 -0.000000
vertex 9.701134 5.185364 -0.000000
endloop
endfacet
facet normal -0.000000 -0.000000 -1.000000
outer loop
vertex 11.712595 5.640489 -0.000000
vertex 9.701134 5.185364 -0.000000
vertex 11.159834 6.667691 -0.000000
endloop
endfacet
facet normal -0.000000 -0.000000 -1.000000
outer loop
vertex -5.109325 -11.953861 0.000000
vertex -5.185364 -9.701134 0.000000
vertex -4.209518 -10.162675 0.000000
endloop
endfacet
facet normal -0.000000 -0.000000 -1.000000
outer loop
vertex -5.109325 -11.953861 0.000000
vertex -6.160293 -11.447742 0.000000
vertex -5.185364 -9.701134 0.000000
endloop
endfacet
facet normal 0.000000 -0.000000 -1.000000
outer loop
vertex 12.171053 4.567873 -0.000000
vertex 10.162675 4.209518 -0.000000
vertex 11.712595 5.640489 -0.000000
endloop
endfacet
facet normal 0.000000 -0.000000 -1.000000
outer loop
vertex 12.171053 4.567873 -0.000000
vertex 10.526343 3.193131 -0.000000
vertex 10.162675 4.209518 -0.000000
endloop
endfacet
facet normal 0.000000 -0.000000 -1.000000
outer loop
vertex -4.017221 -12.363734 0.000000
vertex -5.109325 -11.953861 0.000000
vertex -4.209518 -10.162675 0.000000
endloop
endfacet
facet normal 0.000000 -0.000000 -1.000000
outer loop
vertex -4.017221 -12.363734 0.000000
vertex -4.209518 -10.162675 0.000000
vertex -3.193131 -10.526343 0.000000
endloop
endfacet
facet normal -0.000000 -0.000000 -1.000000
outer loop
vertex 12.531517 3.458479 -0.000000
vertex 10.526343 3.193131 -0.000000
vertex 12.171053 4.567873 -0.000000
endloop
endfacet
facet normal 0.000000 -0.000000 -1.000000
outer loop
vertex 12.531517 3.458479 -0.000000
vertex 10.788638 2.145993 -0.000000
vertex 10.526343 3.193131 -0.000000
endloop
endfacet
facet normal -0.000000 -0.000000 -1.000000
outer loop
vertex -2.892772 -12.674063 0.000000
vertex -3.193131 -10.526343 0.000000
vertex -2.145993 -10.788638 0.000000
endloop
endfacet
facet normal 0.000000 -0.000000 -1.000000
outer loop
vertex -2.892772 -12.674063 0.000000
vertex -4.017221 -12.363734 0.000000
vertex -3.193131 -10.526343 0.000000
endloop
endfacet
facet normal 0.000000 -0.000000 -1.000000
outer loop
vertex 12.791084 2.321240 -0.000000
vertex 10.788638 2.145993 -0.000000
vertex 12.531517 3.458479 -0.000000
endloop
endfacet
facet normal 0.000000 -0.000000 -1.000000
outer loop
vertex 12.791084 2.321240 -0.000000
vertex 10.947032 1.078189 -0.000000
vertex 10.788638 2.145993 -0.000000
endloop
endfacet
facet normal 0.000000 -0.000000 -1.000000
outer loop
vertex -1.745032 -12.882347 0.000000
vertex -2.892772 -12.674063 0.000000
vertex -2.145993 -10.788638 0.000000
endloop
endfacet
facet normal -0.000000 -0.000000 -1.000000
outer loop
vertex -1.745032 -12.882347 0.000000
vertex -2.145993 -10.788638 0.000000
vertex -1.078189 -10.947032 0.000000
endloop
endfacet
facet normal -0.000000 -0.000000 -1.000000
outer loop
vertex 12.947666 1.165311 -0.000000
vertex 10.947032 1.078189 -0.000000
vertex 12.791084 2.321240 -0.000000
endloop
endfacet
facet normal -0.000000 -0.000000 -1.000000
outer loop
vertex 12.947666 1.165311 -0.000000
vertex 11.000000 0.000000 0.000000
vertex 10.947032 1.078189 -0.000000
endloop
endfacet
facet normal -0.000000 -0.000000 -1.000000
outer loop
vertex -0.583243 -12.986910 0.000000
vertex -1.745032 -12.882347 0.000000
vertex -1.078189 -10.947032 0.000000
endloop
endfacet
facet normal 0.000000 -0.000000 -1.000000
outer loop
vertex -0.583243 -12.986910 0.000000
vertex -1.078189 -10.947032 0.000000
vertex 0.000000 -11.000000 0.000000
endloop
endfacet
facet normal 0.000000 -0.000000 -1.000000
outer loop
vertex 13.000000 0.000000 0.000000
vertex 11.000000 0.000000 0.000000
vertex 12.947666 1.165311 -0.000000
endloop
endfacet
facet normal 0.000000 -0.000000 -1.000000
outer loop
vertex 0.583243 -12.986910 0.000000
vertex -0.583243 -12.986910 0.000000
vertex 0.000000 -11.000000 0.000000
endloop
endfacet
facet normal -0.000000 -0.000000 -1.000000
outer loop
vertex 0.583243 -12.986910 0.000000
vertex 0.000000 -11.000000 0.000000
vertex 1.078189 -10.947032 0.000000
endloop
endfacet
facet normal 0.000000 -0.000000 -1.000000
outer loop
vertex 12.947666 -1.165311 0.000000
vertex 11.000000 0.000000 0.000000
vertex 13.000000 0.000000 0.000000
endloop
endfacet
facet normal 0.000000 -0.000000 -1.000000
outer loop
vertex 12.947666 -1.165311 0.000000
vertex 10.947032 -1.078189 0.000000
vertex 11.000000 0.000000 0.000000
endloop
endfacet
facet normal 0.000000 -0.000000 -1.000000
outer loop
vertex 1.745032 -12.882347 0.000000
vertex 0.583243 -12.986910 0.000000
vertex 1.078189 -10.947032 0.000000
endloop
endfacet
facet normal 0.000000 -0.000000 -1.000000
outer loop
vertex 1.745032 -12.882347 0.000000
vertex 1.078189 -10.947032 0.000000
vertex 2.145993 -10.788638 0.000000
endloop
endfacet
facet normal 0.000000 -0.000000 -1.000000
outer loop
vertex 12.791084 -2.321240 0.000000
vertex 10.947032 -1.078189 0.000000
vertex 12.947666 -1.165311 0.000000
endloop
endfacet
facet normal -0.000000 -0.000000 -1.000000
outer loop
vertex 12.791084 -2.321240 0.000000
vertex 10.788638 -2.145993 0.000000
vertex 10.947032 -1.078189 0.000000
endloop
endfacet
facet normal -0.000000 -0.000000 -1.000000
outer loop
vertex 2.892772 -12.674063 0.000000
vertex 1.745032 -12.882347 0.000000
vertex 2.145993 -10.788638 0.000000
endloop
endfacet
facet normal 0.000000 -0.000000 -1.000000
outer loop
vertex 2.892772 -12.674063 0.000000
vertex 2.145993 -10.788638 0.000000
vertex 3.193131 -10.526343 0.000000
endloop
endfacet
facet normal -0.000000 -0.000000 -1.000000
outer loop
vertex 12.531517 -3.458479 0.000000
vertex 10.788638 -2.145993 0.000000
vertex 12.791084 -2.321240 0.000000
endloop
endfacet
facet normal 0.000000 -0.000000 -1.000000
outer loop
vertex 12.531517 -3.458479 0.000000
vertex 10.526343 -3.193131 0.000000
vertex 10.788638 -2.145993 0.000000
endloop
endfacet
facet normal 0.000000 -0.000000 -1.000000
outer loop
vertex 4.017221 -12.363734 0.000000
vertex 2.892772 -12.674063 0.000000
vertex 3.193131 -10.526343 0.000000
endloop
endfacet
facet normal -0.000000 -0.000000 -1.000000
outer loop
vertex 4.017221 -12.363734 0.000000
vertex 3.193131 -10.526343 0.000000
vertex 4.209518 -10.162675 0.000000
endloop
endfacet
facet normal 0.000000 -0.000000 -1.000000
outer loop
vertex 12.171053 -4.567873 0.000000
vertex 10.526343 -3.193131 0.000000
vertex 12.531517 -3.458479 0.000000
endloop
endfacet
facet normal -0.000000 -0.000000 -1.000000
outer loop
vertex 12.171053 -4.567873 0.000000
vertex 10.162675 -4.209518 0.000000
vertex 10.526343 -3.193131 0.000000
endloop
endfacet
facet normal 0.000000 -0.000000 -1.000000
outer loop
vertex 5.109325 -11.953861 0.000000
vertex 4.209518 -10.162675 0.000000
vertex 5.185364 -9.701134 0.000000
endloop
endfacet
facet normal 0.000000 -0.000000 -1.000000
outer loop
vertex 5.109325 -11.953861 0.000000
vertex 4.017221 -12.363734 0.000000
vertex 4.209518 -10.162675 0.000000
endloop
endfacet
facet normal -0.000000 -0.000000 -1.000000
outer loop
vertex 11.712595 -5.640489 0.000000
vertex 10.162675 -4.209518 0.000000
vertex 12.171053 -4.567873 0.000000
endloop
endfacet
facet normal -0.000000 -0.000000 -1.000000
outer loop
vertex 11.712595 -5.640489 0.000000
vertex 9.701134 -5.185364 0.000000
vertex 10.162675 -4.209518 0.000000
endloop
endfacet
facet normal 0.000000 -0.000000 -1.000000
outer loop
vertex 6.160293 -11.447742 0.000000
vertex 5.109325 -11.953861 0.000000
vertex 5.185364 -9.701134 0.000000
endloop
endfacet
facet normal -0.000000 -0.000000 -1.000000
outer loop
vertex 11.159834 -6.667691 0.000000
vertex 9.146166 -6.111272 0.000000
vertex 9.701134 -5.185364 0.000000
endloop
endfacet
facet normal 0.000000 -0.000000 -1.000000
outer loop
vertex 11.159834 -6.667691 0.000000
vertex 9.701134 -5.185364 0.000000
vertex 11.712595 -5.640489 0.000000
endloop
endfacet
facet normal -0.000000 -0.000000 -1.000000
outer loop
vertex 7.161661 -10.849452 0.000000
vertex 5.185364 -9.701134 0.000000
vertex 6.111272 -9.146166 0.000000
endloop
endfacet
facet normal -0.000000 -0.000000 -1.000000
outer loop
vertex 7.161661 -10.849452 0.000000
vertex 6.160293 -11.447742 0.000000
vertex 5.185364 -9.701134 0.000000
endloop
endfacet
facet normal 0.000000 -0.000000 -1.000000
outer loop
vertex 10.517220 -7.641208 0.000000
vertex 8.503115 -6.978326 0.000000
vertex 9.146166 -6.111272 0.000000
endloop
endfacet
facet normal -0.000000 -0.000000 -1.000000
outer loop
vertex 10.517220 -7.641208 0.000000
vertex 9.146166 -6.111272 0.000000
vertex 11.159834 -6.667691 0.000000
endloop
endfacet
facet normal 0.000000 -0.000000 -1.000000
outer loop
vertex 8.105368 -10.163809 0.000000
vertex 6.111272 -9.146166 0.000000
vertex 6.978326 -8.503115 0.000000
endloop
endfacet
facet normal 0.000000 -0.000000 -1.000000
outer loop
vertex 8.105368 -10.163809 0.000000
vertex 7.161661 -10.849452 0.000000
vertex 6.111272 -9.146166 0.000000
endloop
endfacet
facet normal 0.000000 -0.000000 -1.000000
outer loop
vertex 9.789929 -8.553204 0.000000
vertex 7.778174 -7.778174 0.000000
vertex 8.503115 -6.978326 0.000000
endloop
endfacet
facet normal -0.000000 -0.000000 -1.000000
outer loop
vertex 9.789929 -8.553204 0.000000
vertex 8.503115 -6.978326 0.000000
vertex 10.517220 -7.641208 0.000000
endloop
endfacet
facet normal -0.000000 -0.000000 -1.000000
outer loop
vertex 8.983814 -9.396334 0.000000
vertex 6.978326 -8.503115 0.000000
vertex 7.778174 -7.778174 0.000000
endloop
endfacet
facet normal 0.000000 -0.000000 -1.000000
outer loop
vertex 8.983814 -9.396334 0.000000
vertex 8.105368 -10.163809 0.000000
vertex 6.978326 -8.503115 0.000000
endloop
endfacet
facet normal 0.000000 -0.000000 -1.000000
outer loop
vertex 8.983814 -9.396334 0.000000
vertex 7.778174 -7.778174 0.000000
vertex 9.789929 -8.553204 0.000000
endloop
endfacet
facet normal -0.998795 0.049069 0.000000
outer loop
vertex 10.947032 -1.078189 13.000000
vertex 11.000000 0.000000 0.000000
vertex 10.947032 -1.078189 0.000000
endloop
endfacet
facet normal -0.998796 0.049067 0.000000
outer loop
vertex 10.947032 -1.078189 13.000000
vertex 11.000000 0.000000 13.000000
vertex 11.000000 0.000000 0.000000
endloop
endfacet
facet normal -0.989176 0.146732 0.000000
outer loop
vertex 10.788638 -2.145993 13.000000
vertex 10.947032 -1.078189 0.000000
vertex 10.788638 -2.145993 0.000000
endloop
endfacet
facet normal -0.989177 0.146730 0.000000
outer loop
vertex 10.788638 -2.145993 13.000000
vertex 10.947032 -1.078189 13.000000
vertex 10.947032 -1.078189 0.000000
endloop
endfacet
facet normal -0.970031 0.242980 0.000000
outer loop
vertex 10.526343 -3.193131 13.000000
vertex 10.788638 -2.145993 0.000000
vertex 10.526343 -3.193131 0.000000
endloop
endfacet
facet normal -0.970031 0.242980 0.000000
outer loop
vertex 10.526343 -3.193131 13.000000
vertex 10.788638 -2.145993 13.000000
vertex 10.788638 -2.145993 0.000000
endloop
endfacet
facet normal -0.941544 0.336890 0.000000
outer loop
vertex 10.162675 -4.209518 13.000000
vertex 10.526343 -3.193131 0.000000
vertex 10.162675 -4.209518 0.000000
endloop
endfacet
facet normal -0.941544 0.336890 0.000000
outer loop
vertex 10.162675 -4.209518 13.000000
vertex 10.526343 -3.193131 13.000000
vertex 10.526343 -3.193131 0.000000
endloop
endfacet
facet normal -0.903990 0.427554 0.000000
outer loop
vertex 9.701134 -5.185364 13.000000
vertex 10.162675 -4.209518 0.000000
vertex 9.701134 -5.185364 0.000000
endloop
endfacet
facet normal -0.857729 0.514103 0.000000
outer loop
vertex 9.701134 -5.185364 13.000000
vertex 9.701134 -5.185364 0.000000
vertex 9.146166 -6.111272 0.000000
endloop
endfacet
facet normal -0.903988 0.427557 0.000000
outer loop
vertex 9.701134 -5.185364 13.000000
vertex 10.162675 -4.209518 13.000000
vertex 10.162675 -4.209518 0.000000
endloop
endfacet
facet normal -0.857729 0.514103 0.000000
outer loop
vertex 9.146166 -6.111272 13.000000
vertex 9.701134 -5.185364 13.000000
vertex 9.146166 -6.111272 0.000000
endloop
endfacet
facet normal -0.803208 0.595699 0.000000
outer loop
vertex 8.503115 -6.978326 13.000000
vertex 9.146166 -6.111272 0.000000
vertex 8.503115 -6.978326 0.000000
endloop
endfacet
facet normal -0.740950 0.671560 0.000000
outer loop
vertex 8.503115 -6.978326 13.000000
vertex 8.503115 -6.978326 0.000000
vertex 7.778174 -7.778174 0.000000
endloop
endfacet
facet normal -0.803208 0.595699 0.000000
outer loop
vertex 8.503115 -6.978326 13.000000
vertex 9.146166 -6.111272 13.000000
vertex 9.146166 -6.111272 0.000000
endloop
endfacet
facet normal -0.740951 0.671558 0.000000
outer loop
vertex 7.778174 -7.778174 13.000000
vertex 8.503115 -6.978326 13.000000
vertex 7.778174 -7.778174 0.000000
endloop
endfacet
facet normal -0.671559 0.740951 0.000000
outer loop
vertex 6.978326 -8.503115 13.000000
vertex 7.778174 -7.778174 0.000000
vertex 6.978326 -8.503115 0.000000
endloop
endfacet
facet normal -0.671559 0.740951 0.000000
outer loop
vertex 6.978326 -8.503115 13.000000
vertex 7.778174 -7.778174 13.000000
vertex 7.778174 -7.778174 0.000000
endloop
endfacet
facet normal -0.595699 0.803207 0.000000
outer loop
vertex 6.111272 -9.146166 13.000000
vertex 6.978326 -8.503115 0.000000
vertex 6.111272 -9.146166 0.000000
endloop
endfacet
facet normal -0.514103 0.857729 0.000000
outer loop
vertex 6.111272 -9.146166 13.000000
vertex 6.111272 -9.146166 0.000000
vertex 5.185364 -9.701134 0.000000
endloop
endfacet
facet normal -0.595699 0.803207 0.000000
outer loop
vertex 6.111272 -9.146166 13.000000
vertex 6.978326 -8.503115 13.000000
vertex 6.978326 -8.503115 0.000000
endloop
endfacet
facet normal -0.514103 0.857729 0.000000
outer loop
vertex 5.185364 -9.701134 13.000000
vertex 6.111272 -9.146166 13.000000
vertex 5.185364 -9.701134 0.000000
endloop
endfacet
facet normal -0.427555 0.903989 0.000000
outer loop
vertex 4.209518 -10.162675 13.000000
vertex 5.185364 -9.701134 0.000000
vertex 4.209518 -10.162675 0.000000
endloop
endfacet
facet normal -0.427555 0.903989 0.000000
outer loop
vertex 4.209518 -10.162675 13.000000
vertex 5.185364 -9.701134 13.000000
vertex 5.185364 -9.701134 0.000000
endloop
endfacet
facet normal -0.336889 0.941544 0.000000
outer loop
vertex 3.193131 -10.526343 13.000000
vertex 4.209518 -10.162675 0.000000
vertex 3.193131 -10.526343 0.000000
endloop
endfacet
facet normal -0.336890 0.941544 0.000000
outer loop
vertex 3.193131 -10.526343 13.000000
vertex 4.209518 -10.162675 13.000000
vertex 4.209518 -10.162675 0.000000
endloop
endfacet
facet normal -0.242981 0.970031 0.000000
outer loop
vertex 2.145993 -10.788638 13.000000
vertex 3.193131 -10.526343 0.000000
vertex 2.145993 -10.788638 0.000000
endloop
endfacet
facet normal -0.242981 0.970031 0.000000
outer loop
vertex 2.145993 -10.788638 13.000000
vertex 3.193131 -10.526343 13.000000
vertex 3.193131 -10.526343 0.000000
endloop
endfacet
facet normal -0.146730 0.989176 0.000000
outer loop
vertex 1.078189 -10.947032 13.000000
vertex 2.145993 -10.788638 0.000000
vertex 1.078189 -10.947032 0.000000
endloop
endfacet
facet normal -0.146730 0.989177 0.000000
outer loop
vertex 1.078189 -10.947032 13.000000
vertex 2.145993 -10.788638 13.000000
vertex 2.145993 -10.788638 0.000000
endloop
endfacet
facet normal -0.049068 0.998795 0.000000
outer loop
vertex 0.000000 -11.000000 13.000000
vertex 1.078189 -10.947032 0.000000
vertex 0.000000 -11.000000 0.000000
endloop
endfacet
facet normal -0.049068 0.998795 0.000000
outer loop
vertex 0.000000 -11.000000 13.000000
vertex 1.078189 -10.947032 13.000000
vertex 1.078189 -10.947032 0.000000
endloop
endfacet
facet normal 0.049068 0.998795 0.000000
outer loop
vertex -1.078189 -10.947032 13.000000
vertex 0.000000 -11.000000 0.000000
vertex -1.078189 -10.947032 0.000000
endloop
endfacet
facet normal 0.049068 0.998795 -0.000000
outer loop
vertex -1.078189 -10.947032 13.000000
vertex 0.000000 -11.000000 13.000000
vertex 0.000000 -11.000000 0.000000
endloop
endfacet
facet normal 0.146730 0.989176 0.000000
outer loop
vertex -2.145993 -10.788638 13.000000
vertex -1.078189 -10.947032 13.000000
vertex -1.078189 -10.947032 0.000000
endloop
endfacet
facet normal 0.146730 0.989177 0.000000
outer loop
vertex -2.145993 -10.788638 13.000000
vertex -1.078189 -10.947032 0.000000
vertex -2.145993 -10.788638 0.000000
endloop
endfacet
facet normal 0.242981 0.970031 0.000000
outer loop
vertex -2.145993 -10.788638 13.000000
vertex -2.145993 -10.788638 0.000000
vertex -3.193131 -10.526343 0.000000
endloop
endfacet
facet normal 0.242981 0.970031 0.000000
outer loop
vertex -3.193131 -10.526343 13.000000
vertex -2.145993 -10.788638 13.000000
vertex -3.193131 -10.526343 0.000000
endloop
endfacet
facet normal 0.336889 0.941544 0.000000
outer loop
vertex -4.209518 -10.162675 13.000000
vertex -3.193131 -10.526343 13.000000
vertex -3.193131 -10.526343 0.000000
endloop
endfacet
facet normal 0.336890 0.941544 0.000000
outer loop
vertex -4.209518 -10.162675 13.000000
vertex -3.193131 -10.526343 0.000000
vertex -4.209518 -10.162675 0.000000
endloop
endfacet
facet normal 0.427555 0.903989 0.000000
outer loop
vertex -5.185364 -9.701134 13.000000
vertex -4.209518 -10.162675 13.000000
vertex -4.209518 -10.162675 0.000000
endloop
endfacet
facet normal 0.427555 0.903989 0.000000
outer loop
vertex -5.185364 -9.701134 13.000000
vertex -4.209518 -10.162675 0.000000
vertex -5.185364 -9.701134 0.000000
endloop
endfacet
facet normal 0.514103 0.857729 0.000000
outer loop
vertex -6.111272 -9.146166 13.000000
vertex -5.185364 -9.701134 0.000000
vertex -6.111272 -9.146166 0.000000
endloop
endfacet
facet normal 0.514103 0.857729 0.000000
outer loop
vertex -6.111272 -9.146166 13.000000
vertex -5.185364 -9.701134 13.000000
vertex -5.185364 -9.701134 0.000000
endloop
endfacet
facet normal 0.595699 0.803207 0.000000
outer loop
vertex -6.978326 -8.503115 13.000000
vertex -6.111272 -9.146166 0.000000
vertex -6.978326 -8.503115 0.000000
endloop
endfacet
facet normal 0.595699 0.803207 0.000000
outer loop
vertex -6.978326 -8.503115 13.000000
vertex -6.111272 -9.146166 13.000000
vertex -6.111272 -9.146166 0.000000
endloop
endfacet
facet normal 0.671559 0.740951 0.000000
outer loop
vertex -7.778174 -7.778174 13.000000
vertex -6.978326 -8.503115 0.000000
vertex -7.778174 -7.778174 0.000000
endloop
endfacet
facet normal 0.671559 0.740951 0.000000
outer loop
vertex -7.778174 -7.778174 13.000000
vertex -6.978326 -8.503115 13.000000
vertex -6.978326 -8.503115 0.000000
endloop
endfacet
facet normal 0.740950 0.671560 0.000000
outer loop
vertex -8.503115 -6.978326 13.000000
vertex -7.778174 -7.778174 0.000000
vertex -8.503115 -6.978326 0.000000
endloop
endfacet
facet normal 0.740951 0.671558 0.000000
outer loop
vertex -8.503115 -6.978326 13.000000
vertex -7.778174 -7.778174 13.000000
vertex -7.778174 -7.778174 0.000000
endloop
endfacet
facet normal 0.803208 0.595699 0.000000
outer loop
vertex -9.146166 -6.111272 13.000000
vertex -8.503115 -6.978326 0.000000
vertex -9.146166 -6.111272 0.000000
endloop
endfacet
facet normal 0.803208 0.595699 0.000000
outer loop
vertex -9.146166 -6.111272 13.000000
vertex -8.503115 -6.978326 13.000000
vertex -8.503115 -6.978326 0.000000
endloop
endfacet
facet normal 0.857729 0.514103 0.000000
outer loop
vertex -9.701134 -5.185364 13.000000
vertex -9.146166 -6.111272 0.000000
vertex -9.701134 -5.185364 0.000000
endloop
endfacet
facet normal 0.903990 0.427554 0.000000
outer loop
vertex -9.701134 -5.185364 13.000000
vertex -9.701134 -5.185364 0.000000
vertex -10.162675 -4.209518 0.000000
endloop
endfacet
facet normal 0.857729 0.514103 0.000000
outer loop
vertex -9.701134 -5.185364 13.000000
vertex -9.146166 -6.111272 13.000000
vertex -9.146166 -6.111272 0.000000
endloop
endfacet
facet normal 0.903988 0.427557 0.000000
outer loop
vertex -10.162675 -4.209518 13.000000
vertex -9.701134 -5.185364 13.000000
vertex -10.162675 -4.209518 0.000000
endloop
endfacet
facet normal 0.941544 0.336890 0.000000
outer loop
vertex -10.526343 -3.193131 13.000000
vertex -10.162675 -4.209518 0.000000
vertex -10.526343 -3.193131 0.000000
endloop
endfacet
facet normal 0.970031 0.242980 0.000000
outer loop
vertex -10.526343 -3.193131 13.000000
vertex -10.526343 -3.193131 0.000000
vertex -10.788638 -2.145993 0.000000
endloop
endfacet
facet normal 0.941544 0.336890 0.000000
outer loop
vertex -10.526343 -3.193131 13.000000
vertex -10.162675 -4.209518 13.000000
vertex -10.162675 -4.209518 0.000000
endloop
endfacet
facet normal 0.970031 0.242980 0.000000
outer loop
vertex -10.788638 -2.145993 13.000000
vertex -10.526343 -3.193131 13.000000
vertex -10.788638 -2.145993 0.000000
endloop
endfacet
facet normal 0.989177 0.146730 0.000000
outer loop
vertex -10.947032 -1.078189 13.000000
vertex -10.788638 -2.145993 0.000000
vertex -10.947032 -1.078189 0.000000
endloop
endfacet
facet normal 0.998795 0.049069 0.000000
outer loop
vertex -10.947032 -1.078189 13.000000
vertex -10.947032 -1.078189 0.000000
vertex -11.000000 0.000000 -0.000000
endloop
endfacet
facet normal 0.989176 0.146732 0.000000
outer loop
vertex -10.947032 -1.078189 13.000000
vertex -10.788638 -2.145993 13.000000
vertex -10.788638 -2.145993 0.000000
endloop
endfacet
facet normal 0.998796 0.049067 0.000000
outer loop
vertex -11.000000 0.000000 13.000000
vertex -10.947032 -1.078189 13.000000
vertex -11.000000 0.000000 -0.000000
endloop
endfacet
facet normal 0.998795 -0.049069 0.000000
outer loop
vertex -10.947032 1.078189 13.000000
vertex -11.000000 0.000000 -0.000000
vertex -10.947032 1.078189 -0.000000
endloop
endfacet
facet normal 0.989177 -0.146730 0.000000
outer loop
vertex -10.947032 1.078189 13.000000
vertex -10.947032 1.078189 -0.000000
vertex -10.788638 2.145993 -0.000000
endloop
endfacet
facet normal 0.998796 -0.049067 0.000000
outer loop
vertex -10.947032 1.078189 13.000000
vertex -11.000000 0.000000 13.000000
vertex -11.000000 0.000000 -0.000000
endloop
endfacet
facet normal 0.989176 -0.146732 0.000000
outer loop
vertex -10.788638 2.145993 13.000000
vertex -10.947032 1.078189 13.000000
vertex -10.788638 2.145993 -0.000000
endloop
endfacet
facet normal 0.970031 -0.242980 0.000000
outer loop
vertex -10.526343 3.193131 13.000000
vertex -10.788638 2.145993 -0.000000
vertex -10.526343 3.193131 -0.000000
endloop
endfacet
facet normal 0.941544 -0.336890 0.000000
outer loop
vertex -10.526343 3.193131 13.000000
vertex -10.526343 3.193131 -0.000000
vertex -10.162675 4.209518 -0.000000
endloop
endfacet
facet normal 0.970031 -0.242980 0.000000
outer loop
vertex -10.526343 3.193131 13.000000
vertex -10.788638 2.145993 13.000000
vertex -10.788638 2.145993 -0.000000
endloop
endfacet
facet normal 0.941544 -0.336890 0.000000
outer loop
vertex -10.162675 4.209518 13.000000
vertex -10.526343 3.193131 13.000000
vertex -10.162675 4.209518 -0.000000
endloop
endfacet
facet normal 0.903990 -0.427554 0.000000
outer loop
vertex -9.701134 5.185364 13.000000
vertex -10.162675 4.209518 -0.000000
vertex -9.701134 5.185364 -0.000000
endloop
endfacet
facet normal 0.857729 -0.514103 0.000000
outer loop
vertex -9.701134 5.185364 13.000000
vertex -9.701134 5.185364 -0.000000
vertex -9.146166 6.111272 -0.000000
endloop
endfacet
facet normal 0.903988 -0.427557 0.000000
outer loop
vertex -9.701134 5.185364 13.000000
vertex -10.162675 4.209518 13.000000
vertex -10.162675 4.209518 -0.000000
endloop
endfacet
facet normal 0.857729 -0.514103 0.000000
outer loop
vertex -9.146166 6.111272 13.000000
vertex -9.701134 5.185364 13.000000
vertex -9.146166 6.111272 -0.000000
endloop
endfacet
facet normal 0.803208 -0.595699 0.000000
outer loop
vertex -8.503115 6.978326 13.000000
vertex -9.146166 6.111272 -0.000000
vertex -8.503115 6.978326 -0.000000
endloop
endfacet
facet normal 0.740950 -0.671560 0.000000
outer loop
vertex -8.503115 6.978326 13.000000
vertex -8.503115 6.978326 -0.000000
vertex -7.778174 7.778174 -0.000000
endloop
endfacet
facet normal 0.803208 -0.595699 0.000000
outer loop
vertex -8.503115 6.978326 13.000000
vertex -9.146166 6.111272 13.000000
vertex -9.146166 6.111272 -0.000000
endloop
endfacet
facet normal 0.740951 -0.671558 0.000000
outer loop
vertex -7.778174 7.778174 13.000000
vertex -8.503115 6.978326 13.000000
vertex -7.778174 7.778174 -0.000000
endloop
endfacet
facet normal 0.671559 -0.740951 0.000000
outer loop
vertex -6.978326 8.503115 13.000000
vertex -7.778174 7.778174 -0.000000
vertex -6.978326 8.503115 -0.000000
endloop
endfacet
facet normal 0.671559 -0.740951 0.000000
outer loop
vertex -6.978326 8.503115 13.000000
vertex -7.778174 7.778174 13.000000
vertex -7.778174 7.778174 -0.000000
endloop
endfacet
facet normal 0.595699 -0.803207 0.000000
outer loop
vertex -6.111272 9.146166 13.000000
vertex -6.978326 8.503115 -0.000000
vertex -6.111272 9.146166 -0.000000
endloop
endfacet
facet normal 0.595699 -0.803207 0.000000
outer loop
vertex -6.111272 9.146166 13.000000
vertex -6.978326 8.503115 13.000000
vertex -6.978326 8.503115 -0.000000
endloop
endfacet
facet normal 0.514103 -0.857729 0.000000
outer loop
vertex -5.185364 9.701134 13.000000
vertex -6.111272 9.146166 13.000000
vertex -6.111272 9.146166 -0.000000
endloop
endfacet
facet normal 0.514103 -0.857729 0.000000
outer loop
vertex -5.185364 9.701134 13.000000
vertex -6.111272 9.146166 -0.000000
vertex -5.185364 9.701134 -0.000000
endloop
endfacet
facet normal 0.427555 -0.903989 0.000000
outer loop
vertex -4.209518 10.162675 13.000000
vertex -5.185364 9.701134 13.000000
vertex -5.185364 9.701134 -0.000000
endloop
endfacet
facet normal 0.427555 -0.903989 0.000000
outer loop
vertex -4.209518 10.162675 13.000000
vertex -5.185364 9.701134 -0.000000
vertex -4.209518 10.162675 -0.000000
endloop
endfacet
facet normal 0.336890 -0.941544 0.000000
outer loop
vertex -3.193131 10.526343 13.000000
vertex -4.209518 10.162675 13.000000
vertex -4.209518 10.162675 -0.000000
endloop
endfacet
facet normal 0.336889 -0.941544 0.000000
outer loop
vertex -3.193131 10.526343 13.000000
vertex -4.209518 10.162675 -0.000000
vertex -3.193131 10.526343 -0.000000
endloop
endfacet
facet normal 0.242981 -0.970031 0.000000
outer loop
vertex -2.145993 10.788638 13.000000
vertex -3.193131 10.526343 13.000000
vertex -3.193131 10.526343 -0.000000
endloop
endfacet
facet normal 0.242981 -0.970031 0.000000
outer loop
vertex -2.145993 10.788638 13.000000
vertex -3.193131 10.526343 -0.000000
vertex -2.145993 10.788638 -0.000000
endloop
endfacet
facet normal 0.146730 -0.989177 0.000000
outer loop
vertex -1.078189 10.947032 13.000000
vertex -2.145993 10.788638 13.000000
vertex -2.145993 10.788638 -0.000000
endloop
endfacet
facet normal 0.146730 -0.989176 0.000000
outer loop
vertex -1.078189 10.947032 13.000000
vertex -2.145993 10.788638 -0.000000
vertex -1.078189 10.947032 -0.000000
endloop
endfacet
facet normal 0.049068 -0.998795 0.000000
outer loop
vertex 0.000000 11.000000 13.000000
vertex -1.078189 10.947032 13.000000
vertex -1.078189 10.947032 -0.000000
endloop
endfacet
facet normal 0.049068 -0.998795 0.000000
outer loop
vertex 0.000000 11.000000 13.000000
vertex -1.078189 10.947032 -0.000000
vertex 0.000000 11.000000 -0.000000
endloop
endfacet
facet normal -0.049068 -0.998795 -0.000000
outer loop
vertex 1.078189 10.947032 13.000000
vertex 0.000000 11.000000 13.000000
vertex 0.000000 11.000000 -0.000000
endloop
endfacet
facet normal -0.049068 -0.998795 0.000000
outer loop
vertex 1.078189 10.947032 13.000000
vertex 0.000000 11.000000 -0.000000
vertex 1.078189 10.947032 -0.000000
endloop
endfacet
facet normal -0.146730 -0.989176 0.000000
outer loop
vertex 2.145993 10.788638 13.000000
vertex 1.078189 10.947032 13.000000
vertex 1.078189 10.947032 -0.000000
endloop
endfacet
facet normal -0.146730 -0.989177 0.000000
outer loop
vertex 2.145993 10.788638 13.000000
vertex 1.078189 10.947032 -0.000000
vertex 2.145993 10.788638 -0.000000
endloop
endfacet
facet normal -0.242981 -0.970031 0.000000
outer loop
vertex 3.193131 10.526343 13.000000
vertex 2.145993 10.788638 13.000000
vertex 2.145993 10.788638 -0.000000
endloop
endfacet
facet normal -0.242981 -0.970031 0.000000
outer loop
vertex 3.193131 10.526343 13.000000
vertex 2.145993 10.788638 -0.000000
vertex 3.193131 10.526343 -0.000000
endloop
endfacet
facet normal -0.336889 -0.941544 0.000000
outer loop
vertex 3.193131 10.526343 13.000000
vertex 3.193131 10.526343 -0.000000
vertex 4.209518 10.162675 -0.000000
endloop
endfacet
facet normal -0.336890 -0.941544 0.000000
outer loop
vertex 4.209518 10.162675 13.000000
vertex 3.193131 10.526343 13.000000
vertex 4.209518 10.162675 -0.000000
endloop
endfacet
facet normal -0.427555 -0.903989 0.000000
outer loop
vertex 5.185364 9.701134 13.000000
vertex 4.209518 10.162675 13.000000
vertex 4.209518 10.162675 -0.000000
endloop
endfacet
facet normal -0.427555 -0.903989 0.000000
outer loop
vertex 5.185364 9.701134 13.000000
vertex 4.209518 10.162675 -0.000000
vertex 5.185364 9.701134 -0.000000
endloop
endfacet
facet normal -0.514103 -0.857729 0.000000
outer loop
vertex 6.111272 9.146166 13.000000
vertex 5.185364 9.701134 13.000000
vertex 5.185364 9.701134 -0.000000
endloop
endfacet
facet normal -0.514103 -0.857729 0.000000
outer loop
vertex 6.111272 9.146166 13.000000
vertex 5.185364 9.701134 -0.000000
vertex 6.111272 9.146166 -0.000000
endloop
endfacet
facet normal -0.595699 -0.803207 0.000000
outer loop
vertex 6.978326 8.503115 13.000000
vertex 6.111272 9.146166 13.000000
vertex 6.111272 9.146166 -0.000000
endloop
endfacet
facet normal -0.595699 -0.803207 0.000000
outer loop
vertex 6.978326 8.503115 13.000000
vertex 6.111272 9.146166 -0.000000
vertex 6.978326 8.503115 -0.000000
endloop
endfacet
facet normal -0.671559 -0.740951 0.000000
outer loop
vertex 7.778174 7.778174 13.000000
vertex 6.978326 8.503115 13.000000
vertex 6.978326 8.503115 -0.000000
endloop
endfacet
facet normal -0.671559 -0.740951 0.000000
outer loop
vertex 7.778174 7.778174 13.000000
vertex 6.978326 8.503115 -0.000000
vertex 7.778174 7.778174 -0.000000
endloop
endfacet
facet normal -0.740950 -0.671560 0.000000
outer loop
vertex 8.503115 6.978326 13.000000
vertex 7.778174 7.778174 -0.000000
vertex 8.503115 6.978326 -0.000000
endloop
endfacet
facet normal -0.740951 -0.671558 0.000000
outer loop
vertex 8.503115 6.978326 13.000000
vertex 7.778174 7.778174 13.000000
vertex 7.778174 7.778174 -0.000000
endloop
endfacet
facet normal -0.803208 -0.595699 0.000000
outer loop
vertex 8.503115 6.978326 13.000000
vertex 8.503115 6.978326 -0.000000
vertex 9.146166 6.111272 -0.000000
endloop
endfacet
facet normal -0.803208 -0.595699 0.000000
outer loop
vertex 9.146166 6.111272 13.000000
vertex 8.503115 6.978326 13.000000
vertex 9.146166 6.111272 -0.000000
endloop
endfacet
facet normal -0.857729 -0.514103 0.000000
outer loop
vertex 9.701134 5.185364 13.000000
vertex 9.146166 6.111272 -0.000000
vertex 9.701134 5.185364 -0.000000
endloop
endfacet
facet normal -0.857729 -0.514103 0.000000
outer loop
vertex 9.701134 5.185364 13.000000
vertex 9.146166 6.111272 13.000000
vertex 9.146166 6.111272 -0.000000
endloop
endfacet
facet normal -0.903988 -0.427557 0.000000
outer loop
vertex 10.162675 4.209518 13.000000
vertex 9.701134 5.185364 -0.000000
vertex 10.162675 4.209518 -0.000000
endloop
endfacet
facet normal -0.903990 -0.427554 0.000000
outer loop
vertex 10.162675 4.209518 13.000000
vertex 9.701134 5.185364 13.000000
vertex 9.701134 5.185364 -0.000000
endloop
endfacet
facet normal -0.941544 -0.336890 0.000000
outer loop
vertex 10.526343 3.193131 13.000000
vertex 10.162675 4.209518 -0.000000
vertex 10.526343 3.193131 -0.000000
endloop
endfacet
facet normal -0.970031 -0.242980 0.000000
outer loop
vertex 10.526343 3.193131 13.000000
vertex 10.526343 3.193131 -0.000000
vertex 10.788638 2.145993 -0.000000
endloop
endfacet
facet normal -0.941544 -0.336890 0.000000
outer loop
vertex 10.526343 3.193131 13.000000
vertex 10.162675 4.209518 13.000000
vertex 10.162675 4.209518 -0.000000
endloop
endfacet
facet normal -0.970031 -0.242980 0.000000
outer loop
vertex 10.788638 2.145993 13.000000
vertex 10.526343 3.193131 13.000000
vertex 10.788638 2.145993 -0.000000
endloop
endfacet
facet normal -0.989177 -0.146730 0.000000
outer loop
vertex 10.947032 1.078189 13.000000
vertex 10.788638 2.145993 -0.000000
vertex 10.947032 1.078189 -0.000000
endloop
endfacet
facet normal -0.998795 -0.049069 0.000000
outer loop
vertex 10.947032 1.078189 13.000000
vertex 10.947032 1.078189 -0.000000
vertex 11.000000 0.000000 0.000000
endloop
endfacet
facet normal -0.989176 -0.146732 0.000000
outer loop
vertex 10.947032 1.078189 13.000000
vertex 10.788638 2.145993 13.000000
vertex 10.788638 2.145993 -0.000000
endloop
endfacet
facet normal -0.998796 -0.049067 0.000000
outer loop
vertex 11.000000 0.000000 13.000000
vertex 10.947032 1.078189 13.000000
vertex 11.000000 0.000000 0.000000
endloop
endfacet
endsolid Exported from Blender-2.77 (sub 0)
