solid Exported from Blender-2.77 (sub 0)
facet normal 0.000000 0.000000 1.000000
outer loop
vertex 7.070664 -8.426489 2.000000
vertex 8.426489 -7.070664 2.000000
vertex 9.010673 -6.309341 2.000000
endloop
endfacet
facet normal 0.000000 0.000000 1.000000
outer loop
vertex 7.070664 -8.426489 2.000000
vertex 7.778174 -7.778174 2.000000
vertex 8.426489 -7.070664 2.000000
endloop
endfacet
facet normal 0.000000 0.000000 1.000000
outer loop
vertex -8.426489 7.070664 2.000000
vertex 9.010673 -6.309341 2.000000
vertex -5.500000 9.526279 2.000000
endloop
endfacet
facet normal -0.000000 0.000000 1.000000
outer loop
vertex -8.426489 7.070664 2.000000
vertex 7.070664 -8.426489 2.000000
vertex 9.010673 -6.309341 2.000000
endloop
endfacet
facet normal 0.000000 0.000000 1.000000
outer loop
vertex -8.426489 7.070664 2.000000
vertex -5.500000 9.526279 2.000000
vertex -7.070664 8.426489 2.000000
endloop
endfacet
facet normal 0.000000 0.000000 1.000000
outer loop
vertex -8.426489 7.070664 2.000000
vertex -7.070664 8.426489 2.000000
vertex -7.778174 7.778174 2.000000
endloop
endfacet
facet normal -0.000000 0.000000 1.000000
outer loop
vertex -9.010673 6.309341 2.000000
vertex 6.309341 -9.010673 2.000000
vertex 7.070664 -8.426489 2.000000
endloop
endfacet
facet normal 0.000000 0.000000 1.000000
outer loop
vertex -9.010673 6.309341 2.000000
vertex 7.070664 -8.426489 2.000000
vertex -8.426489 7.070664 2.000000
endloop
endfacet
facet normal 0.000000 0.000000 1.000000
outer loop
vertex 9.969386 4.648801 2.000000
vertex 7.070664 8.426489 2.000000
vertex 6.309341 9.010673 2.000000
endloop
endfacet
facet normal 0.000000 0.000000 1.000000
outer loop
vertex 9.969386 4.648801 2.000000
vertex 7.778174 7.778174 2.000000
vertex 7.070664 8.426489 2.000000
endloop
endfacet
facet normal 0.000000 0.000000 1.000000
outer loop
vertex 9.969386 4.648801 2.000000
vertex 8.426489 7.070664 2.000000
vertex 7.778174 7.778174 2.000000
endloop
endfacet
facet normal 0.000000 0.000000 1.000000
outer loop
vertex 9.969386 4.648801 2.000000
vertex 9.010673 6.309341 2.000000
vertex 8.426489 7.070664 2.000000
endloop
endfacet
facet normal 0.000000 0.000000 1.000000
outer loop
vertex 4.648801 -9.969386 2.000000
vertex 5.500000 -9.526279 2.000000
vertex 6.309341 -9.010673 2.000000
endloop
endfacet
facet normal 0.000000 0.000000 1.000000
outer loop
vertex 9.969386 4.648801 2.000000
vertex 9.526279 5.500000 2.000000
vertex 9.010673 6.309341 2.000000
endloop
endfacet
facet normal 0.000000 0.000000 1.000000
outer loop
vertex 4.648801 -9.969386 2.000000
vertex -9.010673 6.309341 2.000000
vertex -9.526279 5.500000 2.000000
endloop
endfacet
facet normal 0.000000 0.000000 1.000000
outer loop
vertex 4.648801 -9.969386 2.000000
vertex 6.309341 -9.010673 2.000000
vertex -9.010673 6.309341 2.000000
endloop
endfacet
facet normal 0.000000 0.000000 1.000000
outer loop
vertex 4.648801 9.969386 2.000000
vertex 6.309341 9.010673 2.000000
vertex 5.500000 9.526279 2.000000
endloop
endfacet
facet normal 0.000000 0.000000 1.000000
outer loop
vertex -9.969386 4.648801 2.000000
vertex 4.648801 -9.969386 2.000000
vertex -9.526279 5.500000 2.000000
endloop
endfacet
facet normal 0.000000 0.000000 1.000000
outer loop
vertex -10.336618 3.762222 2.000000
vertex 4.648801 -9.969386 2.000000
vertex -9.969386 4.648801 2.000000
endloop
endfacet
facet normal 0.000000 0.000000 1.000000
outer loop
vertex 1.910130 -10.832886 2.000000
vertex 2.847009 -10.625184 2.000000
vertex 3.762222 -10.336618 2.000000
endloop
endfacet
facet normal 0.000000 0.000000 1.000000
outer loop
vertex 2.847009 10.625184 2.000000
vertex 4.648801 9.969386 2.000000
vertex 3.762222 10.336618 2.000000
endloop
endfacet
facet normal 0.000000 0.000000 1.000000
outer loop
vertex -10.832886 1.910130 2.000000
vertex -10.336618 3.762222 2.000000
vertex -10.625184 2.847009 2.000000
endloop
endfacet
facet normal 0.000000 0.000000 1.000000
outer loop
vertex 0.958713 -10.958141 2.000000
vertex 3.762222 -10.336618 2.000000
vertex 4.648801 -9.969386 2.000000
endloop
endfacet
facet normal 0.000000 0.000000 1.000000
outer loop
vertex 0.958713 -10.958141 2.000000
vertex 1.910130 -10.832886 2.000000
vertex 3.762222 -10.336618 2.000000
endloop
endfacet
facet normal -0.000002 0.000000 1.000000
outer loop
vertex 10.832886 1.910130 2.000000
vertex 10.336618 3.762222 2.000000
vertex 9.969386 4.648801 2.000000
endloop
endfacet
facet normal 0.000000 0.000000 1.000000
outer loop
vertex 10.832886 1.910130 2.000000
vertex 10.625184 2.847009 2.000000
vertex 10.336618 3.762222 2.000000
endloop
endfacet
facet normal 0.000002 0.000000 1.000000
outer loop
vertex -10.958141 0.958713 2.000000
vertex -10.336618 3.762222 2.000000
vertex -10.832886 1.910130 2.000000
endloop
endfacet
facet normal 0.000000 0.000000 1.000000
outer loop
vertex 1.910130 10.832886 2.000000
vertex 9.969386 4.648801 2.000000
vertex 6.309341 9.010673 2.000000
endloop
endfacet
facet normal 0.000000 0.000000 1.000000
outer loop
vertex 1.910130 10.832886 2.000000
vertex 6.309341 9.010673 2.000000
vertex 4.648801 9.969386 2.000000
endloop
endfacet
facet normal 0.000000 0.000000 1.000000
outer loop
vertex 1.910130 10.832886 2.000000
vertex 4.648801 9.969386 2.000000
vertex 2.847009 10.625184 2.000000
endloop
endfacet
facet normal 0.000000 0.000000 1.000000
outer loop
vertex -11.000000 -0.000000 2.000000
vertex -10.336618 3.762222 2.000000
vertex -10.958141 0.958713 2.000000
endloop
endfacet
facet normal 0.000000 0.000000 1.000000
outer loop
vertex -0.958713 -10.958141 2.000000
vertex 0.000000 -11.000000 2.000000
vertex 0.958713 -10.958141 2.000000
endloop
endfacet
facet normal 0.000000 0.000000 1.000000
outer loop
vertex -0.958713 -10.958141 2.000000
vertex 0.958713 -10.958141 2.000000
vertex 4.648801 -9.969386 2.000000
endloop
endfacet
facet normal 0.000000 0.000000 1.000000
outer loop
vertex -0.958713 -10.958141 2.000000
vertex 4.648801 -9.969386 2.000000
vertex -10.336618 3.762222 2.000000
endloop
endfacet
facet normal 0.000000 0.000000 1.000000
outer loop
vertex -0.958713 -10.958141 2.000000
vertex -10.336618 3.762222 2.000000
vertex -11.000000 -0.000000 2.000000
endloop
endfacet
facet normal 0.000000 0.000000 1.000000
outer loop
vertex -0.000000 11.000000 2.000000
vertex 1.910130 10.832886 2.000000
vertex 0.958713 10.958141 2.000000
endloop
endfacet
facet normal 0.000000 0.000000 1.000000
outer loop
vertex 10.958141 -0.958713 2.000000
vertex 10.832886 1.910130 2.000000
vertex 9.969386 4.648801 2.000000
endloop
endfacet
facet normal 0.000000 0.000000 1.000000
outer loop
vertex 10.958141 -0.958713 2.000000
vertex 1.910130 10.832886 2.000000
vertex -0.000000 11.000000 2.000000
endloop
endfacet
facet normal 0.000000 0.000000 1.000000
outer loop
vertex 10.958141 -0.958713 2.000000
vertex 10.958141 0.958713 2.000000
vertex 10.832886 1.910130 2.000000
endloop
endfacet
facet normal 0.000000 0.000000 1.000000
outer loop
vertex 10.958141 -0.958713 2.000000
vertex 11.000000 0.000000 2.000000
vertex 10.958141 0.958713 2.000000
endloop
endfacet
facet normal 0.000000 0.000000 1.000000
outer loop
vertex 10.958141 -0.958713 2.000000
vertex 9.969386 4.648801 2.000000
vertex 1.910130 10.832886 2.000000
endloop
endfacet
facet normal 0.000000 0.000000 1.000000
outer loop
vertex -3.762222 -10.336618 2.000000
vertex -1.910130 -10.832886 2.000000
vertex -0.958713 -10.958141 2.000000
endloop
endfacet
facet normal 0.000000 0.000000 1.000000
outer loop
vertex -3.762222 -10.336618 2.000000
vertex -2.847009 -10.625184 2.000000
vertex -1.910130 -10.832886 2.000000
endloop
endfacet
facet normal -0.000000 0.000000 1.000000
outer loop
vertex -3.762222 -10.336618 2.000000
vertex -10.832886 -1.910130 2.000000
vertex -10.625184 -2.847009 2.000000
endloop
endfacet
facet normal 0.000001 0.000000 1.000000
outer loop
vertex -3.762222 -10.336618 2.000000
vertex -10.958141 -0.958713 2.000000
vertex -10.832886 -1.910130 2.000000
endloop
endfacet
facet normal -0.000000 0.000000 1.000000
outer loop
vertex -3.762222 -10.336618 2.000000
vertex -11.000000 -0.000000 2.000000
vertex -10.958141 -0.958713 2.000000
endloop
endfacet
facet normal 0.000000 0.000000 1.000000
outer loop
vertex -3.762222 -10.336618 2.000000
vertex -0.958713 -10.958141 2.000000
vertex -11.000000 -0.000000 2.000000
endloop
endfacet
facet normal 0.000000 0.000000 1.000000
outer loop
vertex -1.910130 10.832886 2.000000
vertex -0.000000 11.000000 2.000000
vertex -0.958713 10.958141 2.000000
endloop
endfacet
facet normal 0.000000 0.000000 1.000000
outer loop
vertex -5.500000 -9.526279 2.000000
vertex -4.648801 -9.969386 2.000000
vertex -3.762222 -10.336618 2.000000
endloop
endfacet
facet normal 0.000000 0.000000 1.000000
outer loop
vertex 10.336618 -3.762222 2.000000
vertex 10.958141 -0.958713 2.000000
vertex -0.000000 11.000000 2.000000
endloop
endfacet
facet normal -0.000002 0.000000 1.000000
outer loop
vertex 10.336618 -3.762222 2.000000
vertex 10.832886 -1.910130 2.000000
vertex 10.958141 -0.958713 2.000000
endloop
endfacet
facet normal 0.000000 0.000000 1.000000
outer loop
vertex 10.336618 -3.762222 2.000000
vertex 10.625184 -2.847009 2.000000
vertex 10.832886 -1.910130 2.000000
endloop
endfacet
facet normal 0.000000 0.000000 1.000000
outer loop
vertex -9.526279 -5.500000 2.000000
vertex -10.336618 -3.762222 2.000000
vertex -9.969386 -4.648801 2.000000
endloop
endfacet
facet normal 0.000000 0.000000 1.000000
outer loop
vertex -9.526279 -5.500000 2.000000
vertex -10.625184 -2.847009 2.000000
vertex -10.336618 -3.762222 2.000000
endloop
endfacet
facet normal 0.000000 0.000000 1.000000
outer loop
vertex 10.336618 -3.762222 2.000000
vertex -0.000000 11.000000 2.000000
vertex -1.910130 10.832886 2.000000
endloop
endfacet
facet normal 0.000000 0.000000 1.000000
outer loop
vertex -9.010673 -6.309341 2.000000
vertex -10.625184 -2.847009 2.000000
vertex -9.526279 -5.500000 2.000000
endloop
endfacet
facet normal 0.000000 0.000000 1.000000
outer loop
vertex -3.762222 10.336618 2.000000
vertex -1.910130 10.832886 2.000000
vertex -2.847009 10.625184 2.000000
endloop
endfacet
facet normal 0.000000 0.000000 1.000000
outer loop
vertex -9.010673 -6.309341 2.000000
vertex -5.500000 -9.526279 2.000000
vertex -3.762222 -10.336618 2.000000
endloop
endfacet
facet normal 0.000000 0.000000 1.000000
outer loop
vertex -9.010673 -6.309341 2.000000
vertex -6.309341 -9.010673 2.000000
vertex -5.500000 -9.526279 2.000000
endloop
endfacet
facet normal 0.000000 0.000000 1.000000
outer loop
vertex -9.010673 -6.309341 2.000000
vertex -3.762222 -10.336618 2.000000
vertex -10.625184 -2.847009 2.000000
endloop
endfacet
facet normal 0.000000 0.000000 1.000000
outer loop
vertex -7.778174 -7.778174 2.000000
vertex -6.309341 -9.010673 2.000000
vertex -9.010673 -6.309341 2.000000
endloop
endfacet
facet normal 0.000000 0.000000 1.000000
outer loop
vertex -7.778174 -7.778174 2.000000
vertex -7.070664 -8.426489 2.000000
vertex -6.309341 -9.010673 2.000000
endloop
endfacet
facet normal 0.000000 0.000000 1.000000
outer loop
vertex -7.778174 -7.778174 2.000000
vertex -9.010673 -6.309341 2.000000
vertex -8.426489 -7.070664 2.000000
endloop
endfacet
facet normal 0.000000 0.000000 1.000000
outer loop
vertex 9.010673 -6.309341 2.000000
vertex 9.969386 -4.648801 2.000000
vertex 10.336618 -3.762222 2.000000
endloop
endfacet
facet normal 0.000000 0.000000 1.000000
outer loop
vertex 9.010673 -6.309341 2.000000
vertex 9.526279 -5.500000 2.000000
vertex 9.969386 -4.648801 2.000000
endloop
endfacet
facet normal 0.000000 0.000000 1.000000
outer loop
vertex 9.010673 -6.309341 2.000000
vertex 10.336618 -3.762222 2.000000
vertex -1.910130 10.832886 2.000000
endloop
endfacet
facet normal 0.000000 0.000000 1.000000
outer loop
vertex 9.010673 -6.309341 2.000000
vertex -1.910130 10.832886 2.000000
vertex -3.762222 10.336618 2.000000
endloop
endfacet
facet normal 0.000000 0.000000 1.000000
outer loop
vertex 9.010673 -6.309341 2.000000
vertex -4.648801 9.969386 2.000000
vertex -5.500000 9.526279 2.000000
endloop
endfacet
facet normal -0.000000 0.000000 1.000000
outer loop
vertex 9.010673 -6.309341 2.000000
vertex -3.762222 10.336618 2.000000
vertex -4.648801 9.969386 2.000000
endloop
endfacet
facet normal 0.000000 0.000000 1.000000
outer loop
vertex -7.070664 8.426489 2.000000
vertex -5.500000 9.526279 2.000000
vertex -6.309341 9.010673 2.000000
endloop
endfacet
facet normal 0.999048 -0.043620 0.000000
outer loop
vertex 10.958141 -0.958713 0.000000
vertex 11.000000 0.000000 2.000000
vertex 10.958141 -0.958713 2.000000
endloop
endfacet
facet normal 0.999048 -0.043620 0.000000
outer loop
vertex 10.958141 -0.958713 0.000000
vertex 11.000000 0.000000 0.000000
vertex 11.000000 0.000000 2.000000
endloop
endfacet
facet normal 0.991445 -0.130525 0.000000
outer loop
vertex 10.832886 -1.910130 0.000000
vertex 10.958141 -0.958713 2.000000
vertex 10.832886 -1.910130 2.000000
endloop
endfacet
facet normal 0.991445 -0.130525 0.000000
outer loop
vertex 10.832886 -1.910130 0.000000
vertex 10.958141 -0.958713 0.000000
vertex 10.958141 -0.958713 2.000000
endloop
endfacet
facet normal 0.976296 -0.216439 0.000000
outer loop
vertex 10.625184 -2.847009 0.000000
vertex 10.832886 -1.910130 2.000000
vertex 10.625184 -2.847009 2.000000
endloop
endfacet
facet normal 0.976296 -0.216441 0.000000
outer loop
vertex 10.625184 -2.847009 0.000000
vertex 10.832886 -1.910130 0.000000
vertex 10.832886 -1.910130 2.000000
endloop
endfacet
facet normal 0.953717 -0.300707 0.000000
outer loop
vertex 10.336618 -3.762222 0.000000
vertex 10.625184 -2.847009 2.000000
vertex 10.336618 -3.762222 2.000000
endloop
endfacet
facet normal 0.953717 -0.300705 0.000000
outer loop
vertex 10.336618 -3.762222 0.000000
vertex 10.625184 -2.847009 0.000000
vertex 10.625184 -2.847009 2.000000
endloop
endfacet
facet normal 0.923880 -0.382682 0.000000
outer loop
vertex 9.969386 -4.648801 0.000000
vertex 10.336618 -3.762222 2.000000
vertex 9.969386 -4.648801 2.000000
endloop
endfacet
facet normal 0.923880 -0.382684 0.000000
outer loop
vertex 9.969386 -4.648801 0.000000
vertex 10.336618 -3.762222 0.000000
vertex 10.336618 -3.762222 2.000000
endloop
endfacet
facet normal 0.887010 -0.461750 0.000000
outer loop
vertex 9.526279 -5.500000 0.000000
vertex 9.969386 -4.648801 2.000000
vertex 9.526279 -5.500000 2.000000
endloop
endfacet
facet normal 0.887011 -0.461748 0.000000
outer loop
vertex 9.526279 -5.500000 0.000000
vertex 9.969386 -4.648801 0.000000
vertex 9.969386 -4.648801 2.000000
endloop
endfacet
facet normal 0.843391 -0.537300 0.000000
outer loop
vertex 9.010673 -6.309341 0.000000
vertex 9.526279 -5.500000 2.000000
vertex 9.010673 -6.309341 2.000000
endloop
endfacet
facet normal 0.843392 -0.537299 0.000000
outer loop
vertex 9.010673 -6.309341 0.000000
vertex 9.526279 -5.500000 0.000000
vertex 9.526279 -5.500000 2.000000
endloop
endfacet
facet normal 0.793354 -0.608761 0.000000
outer loop
vertex 8.426489 -7.070664 0.000000
vertex 9.010673 -6.309341 2.000000
vertex 8.426489 -7.070664 2.000000
endloop
endfacet
facet normal 0.737277 -0.675591 0.000000
outer loop
vertex 8.426489 -7.070664 0.000000
vertex 8.426489 -7.070664 2.000000
vertex 7.778174 -7.778174 2.000000
endloop
endfacet
facet normal 0.793353 -0.608762 0.000000
outer loop
vertex 8.426489 -7.070664 0.000000
vertex 9.010673 -6.309341 0.000000
vertex 9.010673 -6.309341 2.000000
endloop
endfacet
facet normal 0.737278 -0.675590 0.000000
outer loop
vertex 7.778174 -7.778174 0.000000
vertex 8.426489 -7.070664 0.000000
vertex 7.778174 -7.778174 2.000000
endloop
endfacet
facet normal 0.675590 -0.737277 0.000000
outer loop
vertex 7.070664 -8.426489 0.000000
vertex 7.778174 -7.778174 2.000000
vertex 7.070664 -8.426489 2.000000
endloop
endfacet
facet normal 0.608761 -0.793353 0.000000
outer loop
vertex 7.070664 -8.426489 0.000000
vertex 7.070664 -8.426489 2.000000
vertex 6.309341 -9.010673 2.000000
endloop
endfacet
facet normal 0.675591 -0.737277 0.000000
outer loop
vertex 7.070664 -8.426489 0.000000
vertex 7.778174 -7.778174 0.000000
vertex 7.778174 -7.778174 2.000000
endloop
endfacet
facet normal 0.608761 -0.793353 0.000000
outer loop
vertex 6.309341 -9.010673 0.000000
vertex 7.070664 -8.426489 0.000000
vertex 6.309341 -9.010673 2.000000
endloop
endfacet
facet normal 0.537300 -0.843391 0.000000
outer loop
vertex 5.500000 -9.526279 0.000000
vertex 6.309341 -9.010673 0.000000
vertex 6.309341 -9.010673 2.000000
endloop
endfacet
facet normal 0.537299 -0.843392 0.000000
outer loop
vertex 5.500000 -9.526279 0.000000
vertex 6.309341 -9.010673 2.000000
vertex 5.500000 -9.526279 2.000000
endloop
endfacet
facet normal 0.461749 -0.887011 0.000000
outer loop
vertex 4.648801 -9.969386 0.000000
vertex 5.500000 -9.526279 2.000000
vertex 4.648801 -9.969386 2.000000
endloop
endfacet
facet normal 0.382683 -0.923880 0.000000
outer loop
vertex 4.648801 -9.969386 0.000000
vertex 4.648801 -9.969386 2.000000
vertex 3.762222 -10.336618 2.000000
endloop
endfacet
facet normal 0.461749 -0.887011 0.000000
outer loop
vertex 4.648801 -9.969386 0.000000
vertex 5.500000 -9.526279 0.000000
vertex 5.500000 -9.526279 2.000000
endloop
endfacet
facet normal 0.382683 -0.923880 0.000000
outer loop
vertex 3.762222 -10.336618 0.000000
vertex 4.648801 -9.969386 0.000000
vertex 3.762222 -10.336618 2.000000
endloop
endfacet
facet normal 0.300706 -0.953717 0.000000
outer loop
vertex 2.847009 -10.625184 0.000000
vertex 3.762222 -10.336618 0.000000
vertex 3.762222 -10.336618 2.000000
endloop
endfacet
facet normal 0.300706 -0.953717 0.000000
outer loop
vertex 2.847009 -10.625184 0.000000
vertex 3.762222 -10.336618 2.000000
vertex 2.847009 -10.625184 2.000000
endloop
endfacet
facet normal 0.216440 -0.976296 0.000000
outer loop
vertex 2.847009 -10.625184 0.000000
vertex 2.847009 -10.625184 2.000000
vertex 1.910130 -10.832886 2.000000
endloop
endfacet
facet normal 0.216440 -0.976296 0.000000
outer loop
vertex 1.910130 -10.832886 0.000000
vertex 2.847009 -10.625184 0.000000
vertex 1.910130 -10.832886 2.000000
endloop
endfacet
facet normal 0.130525 -0.991445 0.000000
outer loop
vertex 0.958713 -10.958141 0.000000
vertex 1.910130 -10.832886 0.000000
vertex 1.910130 -10.832886 2.000000
endloop
endfacet
facet normal 0.130525 -0.991445 0.000000
outer loop
vertex 0.958713 -10.958141 0.000000
vertex 1.910130 -10.832886 2.000000
vertex 0.958713 -10.958141 2.000000
endloop
endfacet
facet normal 0.043620 -0.999048 0.000000
outer loop
vertex 0.000000 -11.000000 0.000000
vertex 0.958713 -10.958141 2.000000
vertex 0.000000 -11.000000 2.000000
endloop
endfacet
facet normal -0.043620 -0.999048 0.000000
outer loop
vertex 0.000000 -11.000000 0.000000
vertex 0.000000 -11.000000 2.000000
vertex -0.958713 -10.958141 2.000000
endloop
endfacet
facet normal 0.043620 -0.999048 0.000000
outer loop
vertex 0.000000 -11.000000 0.000000
vertex 0.958713 -10.958141 0.000000
vertex 0.958713 -10.958141 2.000000
endloop
endfacet
facet normal -0.043620 -0.999048 0.000000
outer loop
vertex -0.958713 -10.958141 0.000000
vertex 0.000000 -11.000000 0.000000
vertex -0.958713 -10.958141 2.000000
endloop
endfacet
facet normal -0.130525 -0.991445 0.000000
outer loop
vertex -1.910130 -10.832886 0.000000
vertex -0.958713 -10.958141 2.000000
vertex -1.910130 -10.832886 2.000000
endloop
endfacet
facet normal -0.130525 -0.991445 0.000000
outer loop
vertex -1.910130 -10.832886 0.000000
vertex -0.958713 -10.958141 0.000000
vertex -0.958713 -10.958141 2.000000
endloop
endfacet
facet normal -0.216440 -0.976296 0.000000
outer loop
vertex -2.847009 -10.625184 0.000000
vertex -1.910130 -10.832886 2.000000
vertex -2.847009 -10.625184 2.000000
endloop
endfacet
facet normal -0.216440 -0.976296 0.000000
outer loop
vertex -2.847009 -10.625184 0.000000
vertex -1.910130 -10.832886 0.000000
vertex -1.910130 -10.832886 2.000000
endloop
endfacet
facet normal -0.300706 -0.953717 0.000000
outer loop
vertex -3.762222 -10.336618 0.000000
vertex -2.847009 -10.625184 2.000000
vertex -3.762222 -10.336618 2.000000
endloop
endfacet
facet normal -0.382683 -0.923880 0.000000
outer loop
vertex -3.762222 -10.336618 0.000000
vertex -3.762222 -10.336618 2.000000
vertex -4.648801 -9.969386 2.000000
endloop
endfacet
facet normal -0.300706 -0.953717 0.000000
outer loop
vertex -3.762222 -10.336618 0.000000
vertex -2.847009 -10.625184 0.000000
vertex -2.847009 -10.625184 2.000000
endloop
endfacet
facet normal -0.382683 -0.923880 0.000000
outer loop
vertex -4.648801 -9.969386 0.000000
vertex -3.762222 -10.336618 0.000000
vertex -4.648801 -9.969386 2.000000
endloop
endfacet
facet normal -0.461749 -0.887011 0.000000
outer loop
vertex -5.500000 -9.526279 0.000000
vertex -4.648801 -9.969386 2.000000
vertex -5.500000 -9.526279 2.000000
endloop
endfacet
facet normal -0.461749 -0.887011 0.000000
outer loop
vertex -5.500000 -9.526279 0.000000
vertex -4.648801 -9.969386 0.000000
vertex -4.648801 -9.969386 2.000000
endloop
endfacet
facet normal -0.537300 -0.843391 0.000000
outer loop
vertex -6.309341 -9.010673 0.000000
vertex -5.500000 -9.526279 2.000000
vertex -6.309341 -9.010673 2.000000
endloop
endfacet
facet normal -0.537299 -0.843392 0.000000
outer loop
vertex -6.309341 -9.010673 0.000000
vertex -5.500000 -9.526279 0.000000
vertex -5.500000 -9.526279 2.000000
endloop
endfacet
facet normal -0.608761 -0.793353 0.000000
outer loop
vertex -7.070664 -8.426489 0.000000
vertex -6.309341 -9.010673 2.000000
vertex -7.070664 -8.426489 2.000000
endloop
endfacet
facet normal -0.608761 -0.793353 0.000000
outer loop
vertex -7.070664 -8.426489 0.000000
vertex -6.309341 -9.010673 0.000000
vertex -6.309341 -9.010673 2.000000
endloop
endfacet
facet normal -0.675591 -0.737277 0.000000
outer loop
vertex -7.778174 -7.778174 0.000000
vertex -7.070664 -8.426489 2.000000
vertex -7.778174 -7.778174 2.000000
endloop
endfacet
facet normal -0.737278 -0.675590 0.000000
outer loop
vertex -7.778174 -7.778174 0.000000
vertex -7.778174 -7.778174 2.000000
vertex -8.426489 -7.070664 2.000000
endloop
endfacet
facet normal -0.675590 -0.737277 0.000000
outer loop
vertex -7.778174 -7.778174 0.000000
vertex -7.070664 -8.426489 0.000000
vertex -7.070664 -8.426489 2.000000
endloop
endfacet
facet normal -0.737277 -0.675591 0.000000
outer loop
vertex -8.426489 -7.070664 0.000000
vertex -7.778174 -7.778174 0.000000
vertex -8.426489 -7.070664 2.000000
endloop
endfacet
facet normal -0.793353 -0.608762 0.000000
outer loop
vertex -9.010673 -6.309341 0.000000
vertex -8.426489 -7.070664 2.000000
vertex -9.010673 -6.309341 2.000000
endloop
endfacet
facet normal -0.793354 -0.608761 0.000000
outer loop
vertex -9.010673 -6.309341 0.000000
vertex -8.426489 -7.070664 0.000000
vertex -8.426489 -7.070664 2.000000
endloop
endfacet
facet normal -0.843392 -0.537299 0.000000
outer loop
vertex -9.526279 -5.500000 0.000000
vertex -9.010673 -6.309341 2.000000
vertex -9.526279 -5.500000 2.000000
endloop
endfacet
facet normal -0.843391 -0.537300 0.000000
outer loop
vertex -9.526279 -5.500000 0.000000
vertex -9.010673 -6.309341 0.000000
vertex -9.010673 -6.309341 2.000000
endloop
endfacet
facet normal -0.887011 -0.461748 0.000000
outer loop
vertex -9.969386 -4.648801 0.000000
vertex -9.526279 -5.500000 2.000000
vertex -9.969386 -4.648801 2.000000
endloop
endfacet
facet normal -0.923880 -0.382682 0.000000
outer loop
vertex -9.969386 -4.648801 0.000000
vertex -9.969386 -4.648801 2.000000
vertex -10.336618 -3.762222 2.000000
endloop
endfacet
facet normal -0.887010 -0.461750 0.000000
outer loop
vertex -9.969386 -4.648801 0.000000
vertex -9.526279 -5.500000 0.000000
vertex -9.526279 -5.500000 2.000000
endloop
endfacet
facet normal -0.923880 -0.382684 0.000000
outer loop
vertex -10.336618 -3.762222 0.000000
vertex -9.969386 -4.648801 0.000000
vertex -10.336618 -3.762222 2.000000
endloop
endfacet
facet normal -0.953717 -0.300705 0.000000
outer loop
vertex -10.625184 -2.847009 0.000000
vertex -10.336618 -3.762222 2.000000
vertex -10.625184 -2.847009 2.000000
endloop
endfacet
facet normal -0.953717 -0.300707 0.000000
outer loop
vertex -10.625184 -2.847009 0.000000
vertex -10.336618 -3.762222 0.000000
vertex -10.336618 -3.762222 2.000000
endloop
endfacet
facet normal -0.976296 -0.216441 0.000000
outer loop
vertex -10.832886 -1.910130 0.000000
vertex -10.625184 -2.847009 2.000000
vertex -10.832886 -1.910130 2.000000
endloop
endfacet
facet normal -0.976296 -0.216439 0.000000
outer loop
vertex -10.832886 -1.910130 0.000000
vertex -10.625184 -2.847009 0.000000
vertex -10.625184 -2.847009 2.000000
endloop
endfacet
facet normal -0.991445 -0.130525 0.000000
outer loop
vertex -10.958141 -0.958713 0.000000
vertex -10.832886 -1.910130 2.000000
vertex -10.958141 -0.958713 2.000000
endloop
endfacet
facet normal -0.991445 -0.130525 0.000000
outer loop
vertex -10.958141 -0.958713 0.000000
vertex -10.832886 -1.910130 0.000000
vertex -10.832886 -1.910130 2.000000
endloop
endfacet
facet normal -0.999048 -0.043620 0.000000
outer loop
vertex -11.000000 -0.000000 0.000000
vertex -10.958141 -0.958713 2.000000
vertex -11.000000 -0.000000 2.000000
endloop
endfacet
facet normal -0.999048 0.043620 0.000000
outer loop
vertex -11.000000 -0.000000 0.000000
vertex -11.000000 -0.000000 2.000000
vertex -10.958141 0.958713 2.000000
endloop
endfacet
facet normal -0.999048 -0.043620 0.000000
outer loop
vertex -11.000000 -0.000000 0.000000
vertex -10.958141 -0.958713 0.000000
vertex -10.958141 -0.958713 2.000000
endloop
endfacet
facet normal -0.999048 0.043620 0.000000
outer loop
vertex -10.958141 0.958713 0.000000
vertex -11.000000 -0.000000 0.000000
vertex -10.958141 0.958713 2.000000
endloop
endfacet
facet normal -0.991445 0.130525 0.000000
outer loop
vertex -10.832886 1.910130 0.000000
vertex -10.958141 0.958713 2.000000
vertex -10.832886 1.910130 2.000000
endloop
endfacet
facet normal -0.991445 0.130525 0.000000
outer loop
vertex -10.832886 1.910130 0.000000
vertex -10.958141 0.958713 0.000000
vertex -10.958141 0.958713 2.000000
endloop
endfacet
facet normal -0.976296 0.216441 0.000000
outer loop
vertex -10.625184 2.847009 0.000000
vertex -10.832886 1.910130 0.000000
vertex -10.832886 1.910130 2.000000
endloop
endfacet
facet normal -0.976296 0.216439 0.000000
outer loop
vertex -10.625184 2.847009 0.000000
vertex -10.832886 1.910130 2.000000
vertex -10.625184 2.847009 2.000000
endloop
endfacet
facet normal -0.953717 0.300705 0.000000
outer loop
vertex -10.336618 3.762222 0.000000
vertex -10.625184 2.847009 0.000000
vertex -10.625184 2.847009 2.000000
endloop
endfacet
facet normal -0.953717 0.300707 0.000000
outer loop
vertex -10.336618 3.762222 0.000000
vertex -10.625184 2.847009 2.000000
vertex -10.336618 3.762222 2.000000
endloop
endfacet
facet normal -0.923880 0.382684 0.000000
outer loop
vertex -10.336618 3.762222 0.000000
vertex -10.336618 3.762222 2.000000
vertex -9.969386 4.648801 2.000000
endloop
endfacet
facet normal -0.923880 0.382682 0.000000
outer loop
vertex -9.969386 4.648801 0.000000
vertex -10.336618 3.762222 0.000000
vertex -9.969386 4.648801 2.000000
endloop
endfacet
facet normal -0.887011 0.461748 0.000000
outer loop
vertex -9.526279 5.500000 0.000000
vertex -9.969386 4.648801 0.000000
vertex -9.969386 4.648801 2.000000
endloop
endfacet
facet normal -0.887010 0.461750 0.000000
outer loop
vertex -9.526279 5.500000 0.000000
vertex -9.969386 4.648801 2.000000
vertex -9.526279 5.500000 2.000000
endloop
endfacet
facet normal -0.843392 0.537299 0.000000
outer loop
vertex -9.010673 6.309341 0.000000
vertex -9.526279 5.500000 0.000000
vertex -9.526279 5.500000 2.000000
endloop
endfacet
facet normal -0.843391 0.537300 0.000000
outer loop
vertex -9.010673 6.309341 0.000000
vertex -9.526279 5.500000 2.000000
vertex -9.010673 6.309341 2.000000
endloop
endfacet
facet normal -0.793353 0.608762 0.000000
outer loop
vertex -8.426489 7.070664 0.000000
vertex -9.010673 6.309341 0.000000
vertex -9.010673 6.309341 2.000000
endloop
endfacet
facet normal -0.793354 0.608761 0.000000
outer loop
vertex -8.426489 7.070664 0.000000
vertex -9.010673 6.309341 2.000000
vertex -8.426489 7.070664 2.000000
endloop
endfacet
facet normal -0.737277 0.675591 0.000000
outer loop
vertex -8.426489 7.070664 0.000000
vertex -8.426489 7.070664 2.000000
vertex -7.778174 7.778174 2.000000
endloop
endfacet
facet normal -0.737278 0.675590 0.000000
outer loop
vertex -7.778174 7.778174 0.000000
vertex -8.426489 7.070664 0.000000
vertex -7.778174 7.778174 2.000000
endloop
endfacet
facet normal -0.675591 0.737277 0.000000
outer loop
vertex -7.070664 8.426489 0.000000
vertex -7.778174 7.778174 0.000000
vertex -7.778174 7.778174 2.000000
endloop
endfacet
facet normal -0.675590 0.737277 0.000000
outer loop
vertex -7.070664 8.426489 0.000000
vertex -7.778174 7.778174 2.000000
vertex -7.070664 8.426489 2.000000
endloop
endfacet
facet normal -0.608761 0.793353 0.000000
outer loop
vertex -7.070664 8.426489 0.000000
vertex -7.070664 8.426489 2.000000
vertex -6.309341 9.010673 2.000000
endloop
endfacet
facet normal -0.608761 0.793353 0.000000
outer loop
vertex -6.309341 9.010673 0.000000
vertex -7.070664 8.426489 0.000000
vertex -6.309341 9.010673 2.000000
endloop
endfacet
facet normal -0.537300 0.843391 0.000000
outer loop
vertex -5.500000 9.526279 0.000000
vertex -6.309341 9.010673 0.000000
vertex -6.309341 9.010673 2.000000
endloop
endfacet
facet normal -0.537299 0.843392 0.000000
outer loop
vertex -5.500000 9.526279 0.000000
vertex -6.309341 9.010673 2.000000
vertex -5.500000 9.526279 2.000000
endloop
endfacet
facet normal -0.461749 0.887011 0.000000
outer loop
vertex -4.648801 9.969386 0.000000
vertex -5.500000 9.526279 0.000000
vertex -5.500000 9.526279 2.000000
endloop
endfacet
facet normal -0.461749 0.887011 0.000000
outer loop
vertex -4.648801 9.969386 0.000000
vertex -5.500000 9.526279 2.000000
vertex -4.648801 9.969386 2.000000
endloop
endfacet
facet normal -0.382683 0.923880 0.000000
outer loop
vertex -4.648801 9.969386 0.000000
vertex -4.648801 9.969386 2.000000
vertex -3.762222 10.336618 2.000000
endloop
endfacet
facet normal -0.300706 0.953717 0.000000
outer loop
vertex -3.762222 10.336618 0.000000
vertex -3.762222 10.336618 2.000000
vertex -2.847009 10.625184 2.000000
endloop
endfacet
facet normal -0.382683 0.923880 0.000000
outer loop
vertex -3.762222 10.336618 0.000000
vertex -4.648801 9.969386 0.000000
vertex -3.762222 10.336618 2.000000
endloop
endfacet
facet normal -0.300706 0.953717 0.000000
outer loop
vertex -2.847009 10.625184 0.000000
vertex -3.762222 10.336618 0.000000
vertex -2.847009 10.625184 2.000000
endloop
endfacet
facet normal -0.216440 0.976296 0.000000
outer loop
vertex -1.910130 10.832886 0.000000
vertex -2.847009 10.625184 2.000000
vertex -1.910130 10.832886 2.000000
endloop
endfacet
facet normal -0.130525 0.991445 0.000000
outer loop
vertex -1.910130 10.832886 0.000000
vertex -1.910130 10.832886 2.000000
vertex -0.958713 10.958141 2.000000
endloop
endfacet
facet normal -0.216440 0.976296 0.000000
outer loop
vertex -1.910130 10.832886 0.000000
vertex -2.847009 10.625184 0.000000
vertex -2.847009 10.625184 2.000000
endloop
endfacet
facet normal -0.130525 0.991445 0.000000
outer loop
vertex -0.958713 10.958141 0.000000
vertex -1.910130 10.832886 0.000000
vertex -0.958713 10.958141 2.000000
endloop
endfacet
facet normal -0.043620 0.999048 0.000000
outer loop
vertex -0.000000 11.000000 0.000000
vertex -0.958713 10.958141 2.000000
vertex -0.000000 11.000000 2.000000
endloop
endfacet
facet normal 0.043620 0.999048 0.000000
outer loop
vertex -0.000000 11.000000 0.000000
vertex -0.000000 11.000000 2.000000
vertex 0.958713 10.958141 2.000000
endloop
endfacet
facet normal -0.043620 0.999048 0.000000
outer loop
vertex -0.000000 11.000000 0.000000
vertex -0.958713 10.958141 0.000000
vertex -0.958713 10.958141 2.000000
endloop
endfacet
facet normal 0.130525 0.991445 0.000000
outer loop
vertex 0.958713 10.958141 0.000000
vertex 0.958713 10.958141 2.000000
vertex 1.910130 10.832886 2.000000
endloop
endfacet
facet normal 0.043620 0.999048 0.000000
outer loop
vertex 0.958713 10.958141 0.000000
vertex -0.000000 11.000000 0.000000
vertex 0.958713 10.958141 2.000000
endloop
endfacet
facet normal 0.130525 0.991445 0.000000
outer loop
vertex 1.910130 10.832886 0.000000
vertex 0.958713 10.958141 0.000000
vertex 1.910130 10.832886 2.000000
endloop
endfacet
facet normal 0.216440 0.976296 0.000000
outer loop
vertex 2.847009 10.625184 0.000000
vertex 1.910130 10.832886 2.000000
vertex 2.847009 10.625184 2.000000
endloop
endfacet
facet normal 0.300706 0.953717 0.000000
outer loop
vertex 2.847009 10.625184 0.000000
vertex 2.847009 10.625184 2.000000
vertex 3.762222 10.336618 2.000000
endloop
endfacet
facet normal 0.216440 0.976296 0.000000
outer loop
vertex 2.847009 10.625184 0.000000
vertex 1.910130 10.832886 0.000000
vertex 1.910130 10.832886 2.000000
endloop
endfacet
facet normal 0.382683 0.923880 0.000000
outer loop
vertex 3.762222 10.336618 0.000000
vertex 3.762222 10.336618 2.000000
vertex 4.648801 9.969386 2.000000
endloop
endfacet
facet normal 0.300706 0.953717 0.000000
outer loop
vertex 3.762222 10.336618 0.000000
vertex 2.847009 10.625184 0.000000
vertex 3.762222 10.336618 2.000000
endloop
endfacet
facet normal 0.382683 0.923880 0.000000
outer loop
vertex 4.648801 9.969386 0.000000
vertex 3.762222 10.336618 0.000000
vertex 4.648801 9.969386 2.000000
endloop
endfacet
facet normal 0.461749 0.887011 0.000000
outer loop
vertex 5.500000 9.526279 0.000000
vertex 4.648801 9.969386 2.000000
vertex 5.500000 9.526279 2.000000
endloop
endfacet
facet normal 0.537299 0.843392 0.000000
outer loop
vertex 5.500000 9.526279 0.000000
vertex 5.500000 9.526279 2.000000
vertex 6.309341 9.010673 2.000000
endloop
endfacet
facet normal 0.461749 0.887011 0.000000
outer loop
vertex 5.500000 9.526279 0.000000
vertex 4.648801 9.969386 0.000000
vertex 4.648801 9.969386 2.000000
endloop
endfacet
facet normal 0.537300 0.843391 0.000000
outer loop
vertex 6.309341 9.010673 0.000000
vertex 5.500000 9.526279 0.000000
vertex 6.309341 9.010673 2.000000
endloop
endfacet
facet normal 0.608761 0.793353 0.000000
outer loop
vertex 7.070664 8.426489 0.000000
vertex 6.309341 9.010673 2.000000
vertex 7.070664 8.426489 2.000000
endloop
endfacet
facet normal 0.675590 0.737277 0.000000
outer loop
vertex 7.070664 8.426489 0.000000
vertex 7.070664 8.426489 2.000000
vertex 7.778174 7.778174 2.000000
endloop
endfacet
facet normal 0.608761 0.793353 0.000000
outer loop
vertex 7.070664 8.426489 0.000000
vertex 6.309341 9.010673 0.000000
vertex 6.309341 9.010673 2.000000
endloop
endfacet
facet normal 0.675591 0.737277 0.000000
outer loop
vertex 7.778174 7.778174 0.000000
vertex 7.070664 8.426489 0.000000
vertex 7.778174 7.778174 2.000000
endloop
endfacet
facet normal 0.737278 0.675590 0.000000
outer loop
vertex 7.778174 7.778174 0.000000
vertex 7.778174 7.778174 2.000000
vertex 8.426489 7.070664 2.000000
endloop
endfacet
facet normal 0.737277 0.675591 0.000000
outer loop
vertex 8.426489 7.070664 0.000000
vertex 7.778174 7.778174 0.000000
vertex 8.426489 7.070664 2.000000
endloop
endfacet
facet normal 0.793354 0.608761 0.000000
outer loop
vertex 9.010673 6.309341 0.000000
vertex 8.426489 7.070664 0.000000
vertex 8.426489 7.070664 2.000000
endloop
endfacet
facet normal 0.793353 0.608762 0.000000
outer loop
vertex 9.010673 6.309341 0.000000
vertex 8.426489 7.070664 2.000000
vertex 9.010673 6.309341 2.000000
endloop
endfacet
facet normal 0.843391 0.537300 0.000000
outer loop
vertex 9.010673 6.309341 0.000000
vertex 9.010673 6.309341 2.000000
vertex 9.526279 5.500000 2.000000
endloop
endfacet
facet normal 0.843392 0.537299 0.000000
outer loop
vertex 9.526279 5.500000 0.000000
vertex 9.010673 6.309341 0.000000
vertex 9.526279 5.500000 2.000000
endloop
endfacet
facet normal 0.887010 0.461750 0.000000
outer loop
vertex 9.969386 4.648801 0.000000
vertex 9.526279 5.500000 0.000000
vertex 9.526279 5.500000 2.000000
endloop
endfacet
facet normal 0.887011 0.461748 0.000000
outer loop
vertex 9.969386 4.648801 0.000000
vertex 9.526279 5.500000 2.000000
vertex 9.969386 4.648801 2.000000
endloop
endfacet
facet normal 0.923880 0.382682 0.000000
outer loop
vertex 9.969386 4.648801 0.000000
vertex 9.969386 4.648801 2.000000
vertex 10.336618 3.762222 2.000000
endloop
endfacet
facet normal 0.923880 0.382684 0.000000
outer loop
vertex 10.336618 3.762222 0.000000
vertex 9.969386 4.648801 0.000000
vertex 10.336618 3.762222 2.000000
endloop
endfacet
facet normal 0.953717 0.300707 0.000000
outer loop
vertex 10.336618 3.762222 0.000000
vertex 10.336618 3.762222 2.000000
vertex 10.625184 2.847009 2.000000
endloop
endfacet
facet normal 0.953717 0.300705 0.000000
outer loop
vertex 10.625184 2.847009 0.000000
vertex 10.336618 3.762222 0.000000
vertex 10.625184 2.847009 2.000000
endloop
endfacet
facet normal 0.976296 0.216439 0.000000
outer loop
vertex 10.832886 1.910130 0.000000
vertex 10.625184 2.847009 0.000000
vertex 10.625184 2.847009 2.000000
endloop
endfacet
facet normal 0.976296 0.216441 0.000000
outer loop
vertex 10.832886 1.910130 0.000000
vertex 10.625184 2.847009 2.000000
vertex 10.832886 1.910130 2.000000
endloop
endfacet
facet normal 0.991445 0.130525 0.000000
outer loop
vertex 10.958141 0.958713 0.000000
vertex 10.832886 1.910130 0.000000
vertex 10.832886 1.910130 2.000000
endloop
endfacet
facet normal 0.991445 0.130525 0.000000
outer loop
vertex 10.958141 0.958713 0.000000
vertex 10.832886 1.910130 2.000000
vertex 10.958141 0.958713 2.000000
endloop
endfacet
facet normal 0.999048 0.043620 0.000000
outer loop
vertex 11.000000 0.000000 0.000000
vertex 10.958141 0.958713 0.000000
vertex 10.958141 0.958713 2.000000
endloop
endfacet
facet normal 0.999048 0.043620 0.000000
outer loop
vertex 11.000000 0.000000 0.000000
vertex 10.958141 0.958713 2.000000
vertex 11.000000 0.000000 2.000000
endloop
endfacet
facet normal 0.000000 0.000000 -1.000000
outer loop
vertex 7.778174 7.778174 0.000000
vertex -9.010673 -6.309341 0.000000
vertex 5.500000 9.526279 0.000000
endloop
endfacet
facet normal 0.000000 0.000000 -1.000000
outer loop
vertex -8.426489 7.070664 0.000000
vertex -7.778174 7.778174 0.000000
vertex -7.070664 8.426489 0.000000
endloop
endfacet
facet normal 0.000000 0.000000 -1.000000
outer loop
vertex 7.778174 7.778174 0.000000
vertex 5.500000 9.526279 0.000000
vertex 6.309341 9.010673 0.000000
endloop
endfacet
facet normal 0.000000 0.000000 -1.000000
outer loop
vertex 7.778174 7.778174 0.000000
vertex 6.309341 9.010673 0.000000
vertex 7.070664 8.426489 0.000000
endloop
endfacet
facet normal 0.000000 0.000000 -1.000000
outer loop
vertex -7.778174 -7.778174 0.000000
vertex -8.426489 -7.070664 0.000000
vertex -9.010673 -6.309341 0.000000
endloop
endfacet
facet normal 0.000000 0.000000 -1.000000
outer loop
vertex -7.778174 -7.778174 0.000000
vertex -9.010673 -6.309341 0.000000
vertex 7.778174 7.778174 0.000000
endloop
endfacet
facet normal 0.000000 0.000000 -1.000000
outer loop
vertex 8.426489 7.070664 0.000000
vertex -7.778174 -7.778174 0.000000
vertex 7.778174 7.778174 0.000000
endloop
endfacet
facet normal 0.000000 0.000000 -1.000000
outer loop
vertex 9.010673 6.309341 0.000000
vertex -7.778174 -7.778174 0.000000
vertex 8.426489 7.070664 0.000000
endloop
endfacet
facet normal 0.000000 0.000000 -1.000000
outer loop
vertex -6.309341 -9.010673 0.000000
vertex -7.070664 -8.426489 0.000000
vertex -7.778174 -7.778174 0.000000
endloop
endfacet
facet normal 0.000000 0.000000 -1.000000
outer loop
vertex -6.309341 -9.010673 0.000000
vertex -7.778174 -7.778174 0.000000
vertex 9.010673 6.309341 0.000000
endloop
endfacet
facet normal 0.000000 0.000000 -1.000000
outer loop
vertex -9.969386 4.648801 0.000000
vertex -9.526279 5.500000 0.000000
vertex -9.010673 6.309341 0.000000
endloop
endfacet
facet normal 0.000000 0.000000 -1.000000
outer loop
vertex 9.969386 4.648801 0.000000
vertex 9.010673 6.309341 0.000000
vertex 9.526279 5.500000 0.000000
endloop
endfacet
facet normal 0.000000 0.000000 -1.000000
outer loop
vertex -9.969386 4.648801 0.000000
vertex -9.010673 6.309341 0.000000
vertex -8.426489 7.070664 0.000000
endloop
endfacet
facet normal 0.000000 0.000000 -1.000000
outer loop
vertex -9.969386 4.648801 0.000000
vertex -7.070664 8.426489 0.000000
vertex -6.309341 9.010673 0.000000
endloop
endfacet
facet normal 0.000000 0.000000 -1.000000
outer loop
vertex -9.969386 4.648801 0.000000
vertex -6.309341 9.010673 0.000000
vertex -5.500000 9.526279 0.000000
endloop
endfacet
facet normal 0.000000 0.000000 -1.000000
outer loop
vertex -9.969386 4.648801 0.000000
vertex -8.426489 7.070664 0.000000
vertex -7.070664 8.426489 0.000000
endloop
endfacet
facet normal 0.000000 0.000000 -1.000000
outer loop
vertex -3.762222 -10.336618 0.000000
vertex -4.648801 -9.969386 0.000000
vertex -5.500000 -9.526279 0.000000
endloop
endfacet
facet normal 0.000000 0.000000 -1.000000
outer loop
vertex -3.762222 -10.336618 0.000000
vertex -5.500000 -9.526279 0.000000
vertex -6.309341 -9.010673 0.000000
endloop
endfacet
facet normal 0.000000 0.000000 -1.000000
outer loop
vertex -3.762222 -10.336618 0.000000
vertex -6.309341 -9.010673 0.000000
vertex 9.010673 6.309341 0.000000
endloop
endfacet
facet normal 0.000000 0.000000 -1.000000
outer loop
vertex -3.762222 -10.336618 0.000000
vertex 9.010673 6.309341 0.000000
vertex 9.969386 4.648801 0.000000
endloop
endfacet
facet normal 0.000000 0.000000 -1.000000
outer loop
vertex -2.847009 -10.625184 0.000000
vertex -3.762222 -10.336618 0.000000
vertex 9.969386 4.648801 0.000000
endloop
endfacet
facet normal 0.000000 0.000000 -1.000000
outer loop
vertex -2.847009 -10.625184 0.000000
vertex 9.969386 4.648801 0.000000
vertex 10.336618 3.762222 0.000000
endloop
endfacet
facet normal 0.000000 0.000000 -1.000000
outer loop
vertex 10.832886 1.910130 0.000000
vertex 10.336618 3.762222 0.000000
vertex 10.625184 2.847009 0.000000
endloop
endfacet
facet normal 0.000000 0.000000 -1.000000
outer loop
vertex -10.625184 2.847009 0.000000
vertex -10.336618 3.762222 0.000000
vertex -9.969386 4.648801 0.000000
endloop
endfacet
facet normal 0.000000 0.000000 -1.000000
outer loop
vertex -1.910130 10.832886 0.000000
vertex -5.500000 9.526279 0.000000
vertex -4.648801 9.969386 0.000000
endloop
endfacet
facet normal 0.000000 0.000000 -1.000000
outer loop
vertex -1.910130 10.832886 0.000000
vertex -4.648801 9.969386 0.000000
vertex -3.762222 10.336618 0.000000
endloop
endfacet
facet normal 0.000000 0.000000 -1.000000
outer loop
vertex -1.910130 10.832886 0.000000
vertex -3.762222 10.336618 0.000000
vertex -2.847009 10.625184 0.000000
endloop
endfacet
facet normal 0.000000 0.000000 -1.000000
outer loop
vertex -0.958713 -10.958141 0.000000
vertex -1.910130 -10.832886 0.000000
vertex -2.847009 -10.625184 0.000000
endloop
endfacet
facet normal 0.000000 0.000000 -1.000000
outer loop
vertex -0.958713 -10.958141 0.000000
vertex -2.847009 -10.625184 0.000000
vertex 10.336618 3.762222 0.000000
endloop
endfacet
facet normal 0.000000 0.000000 -1.000000
outer loop
vertex 0.958713 -10.958141 0.000000
vertex 0.000000 -11.000000 0.000000
vertex -0.958713 -10.958141 0.000000
endloop
endfacet
facet normal 0.000000 0.000000 -1.000000
outer loop
vertex 0.958713 -10.958141 0.000000
vertex 10.336618 3.762222 0.000000
vertex 10.832886 1.910130 0.000000
endloop
endfacet
facet normal 0.000000 0.000000 -1.000000
outer loop
vertex 0.958713 -10.958141 0.000000
vertex -0.958713 -10.958141 0.000000
vertex 10.336618 3.762222 0.000000
endloop
endfacet
facet normal 0.000000 0.000000 -1.000000
outer loop
vertex 10.958141 -0.958713 0.000000
vertex 10.832886 1.910130 0.000000
vertex 10.958141 0.958713 0.000000
endloop
endfacet
facet normal 0.000000 0.000000 -1.000000
outer loop
vertex 10.958141 -0.958713 0.000000
vertex 10.958141 0.958713 0.000000
vertex 11.000000 0.000000 0.000000
endloop
endfacet
facet normal 0.000000 0.000000 -1.000000
outer loop
vertex -0.000000 11.000000 0.000000
vertex -1.910130 10.832886 0.000000
vertex -0.958713 10.958141 0.000000
endloop
endfacet
facet normal 0.000000 0.000000 -1.000000
outer loop
vertex -11.000000 -0.000000 0.000000
vertex -10.958141 0.958713 0.000000
vertex -10.832886 1.910130 0.000000
endloop
endfacet
facet normal 0.000000 0.000000 -1.000000
outer loop
vertex -11.000000 -0.000000 0.000000
vertex -10.832886 1.910130 0.000000
vertex -10.625184 2.847009 0.000000
endloop
endfacet
facet normal 0.000000 0.000000 -1.000000
outer loop
vertex 10.625184 -2.847009 0.000000
vertex 10.958141 -0.958713 0.000000
vertex 10.832886 -1.910130 0.000000
endloop
endfacet
facet normal 0.000000 0.000000 -1.000000
outer loop
vertex 1.910130 10.832886 0.000000
vertex -1.910130 10.832886 0.000000
vertex -0.000000 11.000000 0.000000
endloop
endfacet
facet normal 0.000000 0.000000 -1.000000
outer loop
vertex 10.336618 -3.762222 0.000000
vertex 10.832886 1.910130 0.000000
vertex 10.958141 -0.958713 0.000000
endloop
endfacet
facet normal 0.000000 0.000000 -1.000000
outer loop
vertex 10.336618 -3.762222 0.000000
vertex 10.958141 -0.958713 0.000000
vertex 10.625184 -2.847009 0.000000
endloop
endfacet
facet normal 0.000000 0.000000 -1.000000
outer loop
vertex 1.910130 10.832886 0.000000
vertex -0.000000 11.000000 0.000000
vertex 0.958713 10.958141 0.000000
endloop
endfacet
facet normal 0.000000 0.000000 -1.000000
outer loop
vertex 3.762222 -10.336618 0.000000
vertex 2.847009 -10.625184 0.000000
vertex 1.910130 -10.832886 0.000000
endloop
endfacet
facet normal 0.000000 0.000000 -1.000000
outer loop
vertex 3.762222 -10.336618 0.000000
vertex 1.910130 -10.832886 0.000000
vertex 0.958713 -10.958141 0.000000
endloop
endfacet
facet normal 0.000000 0.000000 -1.000000
outer loop
vertex -10.832886 -1.910130 0.000000
vertex -11.000000 -0.000000 0.000000
vertex -10.625184 2.847009 0.000000
endloop
endfacet
facet normal 0.000000 0.000000 -1.000000
outer loop
vertex -10.832886 -1.910130 0.000000
vertex -10.958141 -0.958713 0.000000
vertex -11.000000 -0.000000 0.000000
endloop
endfacet
facet normal 0.000000 0.000000 -1.000000
outer loop
vertex -10.832886 -1.910130 0.000000
vertex -10.625184 2.847009 0.000000
vertex -9.969386 4.648801 0.000000
endloop
endfacet
facet normal 0.000000 0.000000 -1.000000
outer loop
vertex 2.847009 10.625184 0.000000
vertex -1.910130 10.832886 0.000000
vertex 1.910130 10.832886 0.000000
endloop
endfacet
facet normal 0.000000 0.000000 -1.000000
outer loop
vertex 4.648801 -9.969386 0.000000
vertex 0.958713 -10.958141 0.000000
vertex 10.832886 1.910130 0.000000
endloop
endfacet
facet normal 0.000000 0.000000 -1.000000
outer loop
vertex 4.648801 -9.969386 0.000000
vertex 3.762222 -10.336618 0.000000
vertex 0.958713 -10.958141 0.000000
endloop
endfacet
facet normal 0.000000 0.000000 -1.000000
outer loop
vertex 2.847009 10.625184 0.000000
vertex -5.500000 9.526279 0.000000
vertex -1.910130 10.832886 0.000000
endloop
endfacet
facet normal 0.000000 0.000000 -1.000000
outer loop
vertex 4.648801 -9.969386 0.000000
vertex 10.832886 1.910130 0.000000
vertex 10.336618 -3.762222 0.000000
endloop
endfacet
facet normal 0.000000 0.000000 -1.000000
outer loop
vertex -10.336618 -3.762222 0.000000
vertex -10.832886 -1.910130 0.000000
vertex -9.969386 4.648801 0.000000
endloop
endfacet
facet normal 0.000000 0.000000 -1.000000
outer loop
vertex 9.010673 -6.309341 0.000000
vertex 9.969386 -4.648801 0.000000
vertex 9.526279 -5.500000 0.000000
endloop
endfacet
facet normal 0.000000 0.000000 -1.000000
outer loop
vertex -10.336618 -3.762222 0.000000
vertex -5.500000 9.526279 0.000000
vertex 2.847009 10.625184 0.000000
endloop
endfacet
facet normal 0.000000 0.000000 -1.000000
outer loop
vertex -10.336618 -3.762222 0.000000
vertex -10.625184 -2.847009 0.000000
vertex -10.832886 -1.910130 0.000000
endloop
endfacet
facet normal 0.000000 0.000000 -1.000000
outer loop
vertex -10.336618 -3.762222 0.000000
vertex -9.969386 4.648801 0.000000
vertex -5.500000 9.526279 0.000000
endloop
endfacet
facet normal 0.000000 0.000000 -1.000000
outer loop
vertex 6.309341 -9.010673 0.000000
vertex 5.500000 -9.526279 0.000000
vertex 4.648801 -9.969386 0.000000
endloop
endfacet
facet normal 0.000000 0.000000 -1.000000
outer loop
vertex 4.648801 9.969386 0.000000
vertex 2.847009 10.625184 0.000000
vertex 3.762222 10.336618 0.000000
endloop
endfacet
facet normal 0.000000 0.000000 -1.000000
outer loop
vertex 8.426489 -7.070664 0.000000
vertex 9.969386 -4.648801 0.000000
vertex 9.010673 -6.309341 0.000000
endloop
endfacet
facet normal 0.000000 0.000000 -1.000000
outer loop
vertex -9.969386 -4.648801 0.000000
vertex -10.336618 -3.762222 0.000000
vertex 2.847009 10.625184 0.000000
endloop
endfacet
facet normal 0.000000 0.000000 -1.000000
outer loop
vertex -9.969386 -4.648801 0.000000
vertex 2.847009 10.625184 0.000000
vertex 4.648801 9.969386 0.000000
endloop
endfacet
facet normal 0.000000 0.000000 -1.000000
outer loop
vertex 7.070664 -8.426489 0.000000
vertex 10.336618 -3.762222 0.000000
vertex 9.969386 -4.648801 0.000000
endloop
endfacet
facet normal 0.000000 0.000000 -1.000000
outer loop
vertex 7.070664 -8.426489 0.000000
vertex 9.969386 -4.648801 0.000000
vertex 8.426489 -7.070664 0.000000
endloop
endfacet
facet normal 0.000000 0.000000 -1.000000
outer loop
vertex 7.070664 -8.426489 0.000000
vertex 6.309341 -9.010673 0.000000
vertex 4.648801 -9.969386 0.000000
endloop
endfacet
facet normal 0.000000 0.000000 -1.000000
outer loop
vertex 7.070664 -8.426489 0.000000
vertex 4.648801 -9.969386 0.000000
vertex 10.336618 -3.762222 0.000000
endloop
endfacet
facet normal 0.000000 0.000000 -1.000000
outer loop
vertex 7.778174 -7.778174 0.000000
vertex 7.070664 -8.426489 0.000000
vertex 8.426489 -7.070664 0.000000
endloop
endfacet
facet normal 0.000000 0.000000 -1.000000
outer loop
vertex -9.010673 -6.309341 0.000000
vertex -9.526279 -5.500000 0.000000
vertex -9.969386 -4.648801 0.000000
endloop
endfacet
facet normal 0.000000 0.000000 -1.000000
outer loop
vertex -9.010673 -6.309341 0.000000
vertex -9.969386 -4.648801 0.000000
vertex 4.648801 9.969386 0.000000
endloop
endfacet
facet normal 0.000000 0.000000 -1.000000
outer loop
vertex -9.010673 -6.309341 0.000000
vertex 4.648801 9.969386 0.000000
vertex 5.500000 9.526279 0.000000
endloop
endfacet
endsolid Exported from Blender-2.77 (sub 0)
